<svg width="147" height="147" viewBox="0 0 147 147" fill="none" xmlns="http://www.w3.org/2000/svg">
<path d="M146.783 146.818H0V0.031475H146.783V146.818Z" fill="#2B5896"/>
<path d="M85.6412 27.0926C78.8551 35.0131 75.1576 44.1196 72.6541 53.429H41.3545L37.852 66.1893H69.8083C69.2352 69.1545 68.6979 72.0958 68.1407 74.9814H35.5157L32.0132 87.7376H65.1755C63.2929 94.1337 60.7257 99.9247 56.6023 104.653C45.2789 117.632 24.443 115.36 24.443 115.36L19.0619 135.113C19.0619 135.113 49.8162 137.68 66.9466 111.861C71.8541 104.466 74.5566 96.1556 76.4392 87.7376H106.784L110.286 74.9814H78.8551C79.3566 71.9963 79.8462 69.055 80.3795 66.1893H112.622L116.125 53.429H83.4681C85.7129 46.6191 89.0124 40.7962 94.6164 36.7126C108.244 26.7822 122.712 29.0946 122.712 29.0946L127.229 12.3423C127.229 12.3423 100.909 9.26572 85.6412 27.0926Z" fill="white"/>
</svg>
