<svg width="306" height="306" viewBox="0 0 306 306" fill="none" xmlns="http://www.w3.org/2000/svg">
<path d="M299.7 161.7C294.9 242.1 225.8 303.3 145.4 298.5C65 293.7 3.7 224.6 8.6 144.2C13.4 63.8 82.5 2.60001 162.9 7.40001C242.3 12.2 303.1 79.7 299.9 158.8" fill="white"/>
<path d="M153.6 292.2L156.1 292.1L156.2 305.6H153.7L153.6 292.2ZM146.5 305.6L147.1 292.1L149.6 292.2L149.1 305.7L146.5 305.6ZM160 292.1L162.5 292L163.3 305.5L160.8 305.7L160 292.1ZM139.5 305.1L140.5 291.6L143.1 291.8L142 305.3L139.5 305.1ZM166.5 291.6L169 291.3L170.3 304.8L167.8 305L166.5 291.6ZM132.4 304.3L134.2 290.9L136.7 291.2L135 304.6L132.4 304.3ZM172.9 290.9L175.4 290.5L177.4 303.9L175 304.2L172.9 290.9ZM125.4 303.2L127.8 289.9L130.4 290.3L127.9 303.6L125.4 303.2ZM179.3 289.8L181.8 289.3L184.5 302.6L182 303L179.3 289.8ZM118.5 301.7L121.4 288.5L123.9 289.1L121 302.3L118.5 301.7ZM185.6 288.5L188.1 287.9L191.4 301L188.9 301.6L185.6 288.5ZM111.6 300L115.1 287L117.6 287.6L114 300.6L111.6 300ZM192 286.8L194.4 286.1L198.2 299.1L195.8 299.8L192 286.8ZM104.8 297.8L109 285L111.4 285.8L107.2 298.7L104.8 297.8ZM198.1 284.8L200.5 284L204.9 296.8L202.5 297.6L198.1 284.8ZM98.1 295.4L103 282.8L105.4 283.7L100.5 296.3L98.1 295.4ZM204.2 282.6L206.5 281.6L211.6 294.1L209.2 295.1L204.2 282.6ZM91.5 292.7L96.8 280.3L99.2 281.3L93.9 293.7L91.5 292.7ZM210.2 280.1L212.5 279L218.1 291.2L215.8 292.3L210.2 280.1ZM85.1 289.6L91 277.5L93.3 278.6L87.4 290.8L85.1 289.6ZM216 277.4L218.3 276.2L224.5 288.2L222.3 289.4L216 277.4ZM78.8 286.3L85.3 274.5L87.5 275.7L81 287.6L78.8 286.3ZM221.7 274.3L223.9 273L230.7 284.7L228.5 286L221.7 274.3ZM72.7 282.7L79.8 271.2L82 272.5L74.9 284.1L72.7 282.7ZM227.3 271L229.4 269.6L236.8 280.9L234.7 282.3L227.3 271ZM66.7 278.8L74.3 267.7L76.4 269.1L68.8 280.2L66.7 278.8ZM232.7 267.3L234.8 265.8L242.6 276.9L240.5 278.4L232.7 267.3ZM61 274.6L69.2 263.8L71.2 265.3L63.1 276.1L61 274.6ZM238 263.5L240 261.9L248.3 272.6L246.3 274.2L238 263.5ZM55.4 270.2L63.9 259.7L65.9 261.3L57.4 271.8L55.4 270.2ZM243 259.4L244.9 257.8L253.6 268L251.7 269.6L243 259.4ZM50.1 265.5L59.1 255.5L61 257.2L52 267.2L50.1 265.5ZM247.8 255.2L249.7 253.5L259 263.3L257.1 265L247.8 255.2ZM44.9 260.6L54.4 250.9L56.2 252.7L46.7 262.3L44.9 260.6ZM252.5 250.7L254.3 248.9L264 258.3L262.2 260.1L252.5 250.7ZM40.1 255.4L50.1 246.3L51.8 248.2L41.9 257.3L40.1 255.4ZM256.9 245.9L258.6 244L268.7 252.9L267 254.8L256.9 245.9ZM35.4 250L45.8 241.3L47.4 243.2L37.1 251.9L35.4 250ZM261.1 241L262.7 239L273.3 247.4L271.7 249.4L261.1 241ZM31 244.4L41.8 236.3L43.3 238.3L32.5 246.5L31 244.4ZM265.1 235.9L266.6 233.8L277.6 241.6L276.1 243.7L265.1 235.9ZM26.9 238.5L38 230.9L39.5 233L28.3 240.6L26.9 238.5ZM268.9 230.5L270.3 228.4L281.6 236L280.2 238.1L268.9 230.5ZM23 232.6L34.5 225.5L35.8 227.7L24.3 234.8L23 232.6ZM272.4 225.1L273.7 222.9L285.3 229.8L284 232L272.4 225.1ZM19.5 226.5L31.3 219.8L32.5 222L20.8 228.7L19.5 226.5ZM275.6 219.5L276.8 217.2L288.7 223.6L287.5 225.8L275.6 219.5ZM16.2 220.2L28.3 214.1L29.4 216.3L17.3 222.4L16.2 220.2ZM278.5 213.7L279.6 211.4L291.8 217.2L290.7 219.5L278.5 213.7ZM13.2 213.7L25.5 208.1L26.6 210.4L14.2 215.9L13.2 213.7ZM281.2 207.9L282.2 205.5L294.7 210.6L293.8 213L281.2 207.9ZM10.6 207.1L23.2 202.2L24.1 204.6L11.5 209.5L10.6 207.1ZM283.6 201.8L284.5 199.4L297.2 204L296.4 206.4L283.6 201.8ZM8.2 200.4L21 196.2L21.8 198.6L9 202.9L8.2 200.4ZM285.8 195.7L286.6 193.3L299.5 197.4L298.7 199.8L285.8 195.7ZM6.2 193.5L19.2 189.9L19.9 192.3L6.89999 195.9L6.2 193.5ZM287.6 189.5L288.2 187L301.3 190.4L300.6 192.8L287.6 189.5ZM4.5 186.6L17.6 183.6L18.2 186L5 189L4.5 186.6ZM289.1 183.2L289.6 180.7L302.8 183.4L302.3 185.9L289.1 183.2ZM3 179.7L16.3 177.2L16.8 179.7L3.5 182.2L3 179.7ZM290.4 176.9L290.8 174.4L304.2 176.5L303.8 179L290.4 176.9ZM2 172.7L15.3 170.8L15.7 173.3L2.39999 175.1L2 172.7ZM291.3 170.4L291.6 167.8L305 169.4L304.7 171.9L291.3 170.4ZM1.2 165.5L14.7 164.4L14.9 166.9L1.5 168.1L1.2 165.5ZM292 163.9L292.2 161.4L305.7 162.3L305.5 164.8L292 163.9ZM0.800003 158.5L14.3 157.9L14.4 160.4L1 161L0.800003 158.5ZM292.3 158.8L292.4 156.3L305.9 156.7L305.8 159.3L292.3 158.8ZM0.800003 153.9V151.4H14.3V153.9H0.800003ZM292.4 149.8L305.9 149.6V152.1L292.4 152.3V149.8ZM0.899994 146.8L1 144.2L14.5 144.9L14.4 147.4L0.899994 146.8ZM292.1 143.4L305.6 142.5L305.8 145L292.3 145.9L292.1 143.4ZM1.3 139.7L1.60001 137.2L15 138.4L14.8 140.9L1.3 139.7ZM291.5 136.9L304.9 135.5L305.2 138L291.7 139.4L291.5 136.9ZM2.10001 132.6L2.39999 130.1L15.8 132L15.5 134.5L2.10001 132.6ZM290.6 130.4L304 128.4L304.3 130.9L290.9 132.9L290.6 130.4ZM3.3 125.6L3.8 123.2L17.1 125.8L16.6 128.3L3.3 125.6ZM289.4 124.1L302.6 121.4L303.1 123.9L289.9 126.6L289.4 124.1ZM4.7 118.7L5.3 116.2L18.4 119.3L17.8 121.7L4.7 118.7ZM287.9 117.8L301 114.4L301.6 116.8L288.5 120.2L287.9 117.8ZM6.39999 111.8L7.10001 109.3L20.1 113L19.4 115.4L6.39999 111.8ZM286.1 111.6L299 107.7L299.8 110.1L286.9 114.1L286.1 111.6ZM8.60001 105L9.39999 102.6L22.2 107L21.4 109.4L8.60001 105ZM284 105.4L296.8 101L297.6 103.4L284.8 107.9L284 105.4ZM11 98.2L11.9 95.8L24.5 100.8L23.6 103.1L11 98.2ZM281.6 99.3L294.1 94.3L295.1 96.6L282.6 101.7L281.6 99.3ZM13.7 91.6L14.7 89.3L27 95L25.9 97.3L13.7 91.6ZM279 93.5L291.3 87.8L292.4 90.1L280.2 95.8L279 93.5ZM16.7 85.3L17.8 83.1L29.9 89.2L28.8 91.4L16.7 85.3ZM276 87.7L288 81.5L289.2 83.7L277.2 90L276 87.7ZM20 79L21.2 76.8L33 83.5L31.7 85.7L20 79ZM272.8 82L284.5 75.2L285.8 77.3L274.2 84.1L272.8 82ZM23.6 72.8L24.9 70.7L36.4 77.9L35 80L23.6 72.8ZM269.4 76.6L280.7 69.2L282.1 71.3L270.8 78.6L269.4 76.6ZM27.5 66.9L29 64.8L40 72.6L38.6 74.7L27.5 66.9ZM265.7 71.2L276.7 63.3L278.2 65.4L267.2 73.3L265.7 71.2ZM31.7 61.1L33.3 59.1L44 67.4L42.4 69.4L31.7 61.1ZM261.8 66.1L272.4 57.7L274 59.7L263.4 68.1L261.8 66.1ZM36.1 55.5L37.7 53.6L48 62.4L46.4 64.3L36.1 55.5ZM257.6 61.1L267.8 52.3L269.5 54.2L259.3 63.1L257.6 61.1ZM40.8 50.1L42.5 48.2L52.3 57.5L50.6 59.4L40.8 50.1ZM253.2 56.4L263 47.1L264.8 48.9L255 58.2L253.2 56.4ZM45.7 45.1L47.5 43.3L57 52.9L55.2 54.7L45.7 45.1ZM248.6 51.9L257.9 42.1L259.7 43.9L250.4 53.7L248.6 51.9ZM50.8 40.2L52.7 38.5L61.7 48.5L59.8 50.2L50.8 40.2ZM243.7 47.5L252.5 37.3L254.4 38.9L245.6 49.2L243.7 47.5ZM56.2 35.5L58.2 33.9L66.7 44.4L64.7 46L56.2 35.5ZM238.7 43.3L247.2 32.8L249.1 34.4L240.7 44.9L238.7 43.3ZM61.8 31.1L63.9 29.6L71.9 40.5L69.9 42L61.8 31.1ZM233.5 39.5L241.5 28.6L243.5 30.1L235.5 41L233.5 39.5ZM67.6 27L69.7 25.6L77.2 36.8L75 38.2L67.6 27ZM228.1 35.9L235.6 24.6L237.7 26L230.3 37.3L228.1 35.9ZM73.6 23.1L75.7 21.8L82.6 33.4L80.5 34.7L73.6 23.1ZM222.6 32.5L229.4 20.9L231.6 22.1L224.7 33.7L222.6 32.5ZM79.7 19.5L81.9 18.3L88.3 30.2L86.1 31.4L79.7 19.5ZM216.9 29.5L223.2 17.5L225.4 18.7L219.1 30.7L216.9 29.5ZM86.1 16.2L88.4 15.1L94.2 27.3L91.9 28.4L86.1 16.2ZM211 26.6L216.8 14.4L219.1 15.5L213.4 27.7L211 26.6ZM92.4 13.2L94.7 12.2L100.1 24.6L97.8 25.6L92.4 13.2ZM205.1 24.1L210.2 11.6L212.5 12.6L207.4 25.1L205.1 24.1ZM99 10.6L101.4 9.7L106.1 22.4L103.8 23.3L99 10.6ZM199 21.8L203.5 9.1L205.9 9.9L201.4 22.6L199 21.8ZM105.8 8.2L108.2 7.4L112.3 20.3L109.9 21L105.8 8.2ZM192.9 19.8L196.8 6.8L199.2 7.5L195.3 20.5L192.9 19.8ZM112.6 6.1L115 5.5L118.5 18.6L116.1 19.2L112.6 6.1ZM186.6 18.1L190 5.1L192.4 5.7L189.1 18.8L186.6 18.1ZM119.5 4.4L122 3.8L124.8 17L122.4 17.5L119.5 4.4ZM180.3 16.7L183 3.5L185.5 4L182.8 17.2L180.3 16.7ZM126.4 3L128.9 2.6L131.2 15.9L128.7 16.3L126.4 3ZM173.9 15.7L176 2.4L178.5 2.7L176.4 16L173.9 15.7ZM133.5 1.9L136 1.6L137.7 15L135.2 15.3L133.5 1.9ZM167.4 14.8L168.9 1.4L171.4 1.7L169.9 15.2L167.4 14.8ZM140.5 1.2L143.1 1L144.1 14.5L141.6 14.7L140.5 1.2ZM160.9 14.3L161.8 0.800003L164.3 1L163.4 14.5L160.9 14.3ZM147.7 0.699997L150.2 0.599998L150.5 14.1H148L147.7 0.699997ZM154.5 14.1L154.7 0.5H157.3L157.1 14.1H154.5Z" fill="#CAD9E3"/>
<path d="M193.8 132L187.8 133.3C187.4 133.4 187.2 133.7 187.3 134.1C187.4 134.5 187.7 134.7 188.1 134.6L190.2 134.2L190.7 134.8C190.8 134.9 191.1 135 191.2 135C191.4 135 191.6 134.9 191.7 134.8C192 134.5 192 134.1 191.8 133.8L194.1 133.3C194.5 133.2 194.7 132.9 194.7 132.5C194.6 132.2 194.3 131.9 193.8 132Z" fill="#6DA4BA"/>
<path d="M269.8 220.2C267.5 219.9 264.4 212.2 264.6 204.9C264.6 203 264.8 201 265.2 199.3C266.9 192.2 271.8 175.1 271.8 154.8C271.8 150.4 271.6 145.9 271.1 141.3C269.5 127.8 267.7 117.9 264.8 110.7C266.2 108.7 267.5 106.3 267.5 104.1C267.5 99.7 263.8 92.8 256.3 92.8C255.6 92.8 254.9 92.9 254.2 93L249.5 94.4C245.6 91.5 241.9 91.2 239.4 91.2C238.8 91.2 238.3 91.2 237.9 91.2C237.1 91.2 236.6 91.1 236.4 91C236.3 91 234.8 90.3 232.7 90.3C232.2 90.3 231.7 90.4 231.1 90.5H231C228.8 90.1 226.7 90 224.6 90C222.4 90 220.4 90.1 218.3 90.4C218 89.9 216.7 87.9 213.8 85.7V84.8C213.7 82.4 211.4 78.6 211.4 78.6C205.5 68.7 196.4 65.1 195.3 64.6C195.6 63.4 195.9 61.2 195.9 60.1C195.9 59.9 195.9 59.8 195.9 59.6C195.9 59.3 196.4 58.2 196.6 57C196.6 57 196.6 56.9 196.6 56.7C196.5 55 194.7 51.7 193.7 49.5C192.5 47.1 189.7 46.8 188.8 46.7C186.2 44.2 182.4 43.9 180.5 43.9C179.8 43.9 179.3 43.9 179.3 43.9C179.1 44 174.4 45 173.3 45.9C172.8 46.3 171.5 47.6 170.3 48.9C168.9 48.1 167.4 47.7 166.1 47.7C162.8 47.7 160.4 49.5 160 49.7C160 49.6 157.5 49.9 156 50.2C154.2 50.4 152.7 51.2 149.1 55.6C147.3 57.7 146.8 59.8 146.8 61.5C146.8 63.1 147.3 64.3 147.5 64.7C145.9 65.2 144.5 66.3 143.7 67C142.4 68.3 142.3 71.4 142.3 72.5C142.1 72.5 141.9 72.5 141.8 72.5C138.8 72.7 136.2 74.3 136.2 74.4C136.2 74.6 134.1 74.8 133.6 76.4C133.6 76.6 133.7 76.8 133.7 76.8C133.9 77.4 135 78.6 137 78.6H137.1C138.6 78.7 139.3 78.2 139.5 77.8C139.6 77.8 139.6 77.8 139.6 77.7C140.2 78.5 144.3 82.3 144.4 82.3C144.5 82.4 146 83.4 148.1 83.4C149 83.4 150.1 83.2 151.1 82.5C152.7 81.2 154.8 81.6 155.6 79.8C156.3 79.7 158 79.3 159.1 78.7C159.5 78.5 160.1 78.1 160.5 77.5C160.6 77.3 162.5 75.3 162.9 75.5V75.6C164.4 79.3 164.8 82.5 164.8 85.1C164.8 90.3 162.9 93.1 162.9 93.1C162.6 93.5 161.5 96.2 160.7 98C160.3 97.1 159.6 96.6 159.2 96.4C159 95.6 158.4 95 158 94.7V94.6C157.8 92.1 155.3 91.9 155.7 91.8C155.1 90.2 153 89.4 153 89.4C152.1 87.9 149.5 87.7 149.5 87.6C149.5 87.6 149.4 87.6 149.2 87.6C148 87.6 145.6 88.6 144.9 88.8C144.7 88.8 144.3 88.8 143.9 88.8C143.3 88.8 142.6 88.8 141.8 89.2C141.6 89.2 141.3 89.2 141 89.2C139.7 89.2 137.3 89.7 135.9 92.5C135.9 92.5 134.2 93.7 133.2 95.3C133.2 95.4 130.5 103.3 130.1 106.3C129.7 109.4 129.9 108.5 129.7 109.3C129.6 110 125.6 113.5 125.6 116.4C125.6 116.9 125.7 117.4 125.9 117.8C123.6 119.5 116.4 125.8 116.4 139.1C116.4 140.4 116.5 141.8 116.6 143.3C113.6 142.1 110.4 141.2 109.6 141C109.1 140.3 108.3 140.1 107.9 139.9C107.3 139.7 104.8 138.6 104.5 138.1C103.6 137.1 101.9 136.7 100.8 136.6C100 136 98.1 132.2 97.3 129.1C96.2 125.7 95.4 121.5 95.4 117.1V116.7L95 116.5H95.4C95.4 111.6 92.2 105.5 91.3 103.3C91.2 103.2 91.2 103 91.1 102.9L95.5 100.7C95.5 101.1 95.4 101.6 95.4 102C95.4 102.7 95.5 103.5 95.9 104.2C95.9 104.2 98.3 110.7 105.5 111.3C106.2 111.3 112.4 111.6 112.4 111.6C112.5 111.6 112.6 111.6 112.6 111.6C114.1 112.4 115.9 113.4 118 113.4C119.2 113.4 120.4 113.1 121.5 112.3C121.5 112.3 123.4 111.3 123.4 108.6C123.4 108.4 123.4 108 123.3 107.7C123.9 107.3 124.7 106.5 124.8 105.1C124.8 104.7 124.7 104.3 124.4 103.8L123.9 102.9L126.3 102.5C126.4 102.3 128.2 102.1 128.5 100.4C128.5 100.4 128.5 100.2 128.4 100L127.9 99.5C127.9 99.5 124.7 98.9 124.1 98.9C123.8 98.9 120.1 98.3 120.1 98.3L118.6 98.5L117 98.1C116.4 96.3 113.3 94.1 112.3 93.3C112.8 93.1 113.2 92.7 113.5 92.3C113.7 91.3 113.7 89.6 113.7 88.8C113.7 88.5 113.7 88.4 113.7 88.4C113.7 88.4 113.7 88.2 113.6 88.1C114.9 86.2 115.1 84 115.1 82.7L118.3 84.4C118.4 84.4 120.7 85.8 122.3 85.8H122.4C123.9 85.7 124.3 84.4 124.2 84L124.7 83.4C125.4 83.1 125.7 82.7 125.9 82.3C126.3 82.3 127.1 82.2 127.7 81.9C128 81.7 128.3 81.4 128.5 81.1C128.8 81.3 129.1 81.5 129.6 81.5C130.4 81.5 131.1 80.7 131.2 79.8C131.7 77.5 133.8 72.5 134.2 71.3C134.4 70.7 134.6 70.4 134.8 70.2C135.3 70.4 135.8 70.5 136.4 70.5H136.8C139.1 70.3 139.6 68.6 139.6 68.1C139.6 68 140.1 66.4 140.1 64.8C140.1 63.1 139.5 60.9 137.3 60C136.8 59 134.9 55.7 131.3 55.6C131.1 55.6 130.8 55.6 130.6 55.6C129.6 54.9 125.7 52.4 121.4 52.4C120.9 52.4 120.3 52.4 119.8 52.5C119.9 52.5 117.5 52 114.9 52C112.1 52 108.5 52.4 107.8 55.3C106.2 55.6 101.2 56.4 100.6 59.2C100.3 59.2 99.9 59.3 99.7 59.5C98.9 59.9 97.4 61.1 97.3 62.9C94.6 61.7 92 61.5 90.7 61.5C90.6 61.5 90.5 61.5 90.4 61.5C90.1 61.5 90 61.5 89.9 61.5C89.9 61.5 86.2 61.1 82.2 61.1C80.1 61.1 77.9 61.2 76.2 61.6C71.5 62.7 65.6 63.8 63 65.3C60.4 66.9 58.1 71.5 56.4 72.4C54.5 73.5 51.2 74.8 50.2 78.7C50.1 79.1 50 79.7 49.9 80.3C49.1 80.5 43.9 82.3 39 91.2C39 91.2 35.7 95.2 34.6 96.1C33.9 96.7 33.8 97.6 33.8 98.6C33.8 100.4 34.4 102.4 35.3 103.4C35.6 103.6 36.3 104.5 37.3 105.4C36.9 106 36.4 107 36.4 108.4C36.4 109.9 36.8 111.8 38.3 114.2C36.8 115.3 33.4 118.7 32.2 128.6C32.2 128.6 31.6 140.9 30 145.6C27.1 151.7 20.6 158.4 20.6 158.4C20.5 158.5 19.7 159.4 19.7 160.8C19.7 161.6 20 162.6 21 163.5L25.8 166.9C25.9 167 26 167 26.2 167C26.2 167.2 26.3 167.4 26.3 167.5C27 168.7 28.5 168.8 30.4 169.5C32.1 170 33.6 170.3 34.3 170.4C34.6 170.7 35 170.8 35.5 170.8C38.4 170.9 39.7 170.8 40.7 172C41.3 172.6 41.9 173.3 42.7 173.7C42.9 173.8 43.7 174 44.9 174.1C42.9 175.3 40.9 177.1 40.5 179.4C40.4 180.6 39.9 182.7 39.9 184.8C39.9 187.9 41.1 191.3 45.9 191.3H46L46.5 191.2C46.5 191.2 49.1 189.8 50.7 188.4C50.9 189.6 51.4 192.8 52.9 194.7C53 194.8 53 194.9 53.1 194.9C53 195.3 52.8 196.6 52.8 198.3C52.8 201 53.4 204.9 56.3 207.9C55.9 208.3 55.1 209.3 55 210.7C54.9 212.2 54.9 214.9 53.8 217.3C52.6 219.8 50.4 225.2 50.3 227.2C50.3 227.2 50.3 227.4 50.4 227.6C50.5 228.4 51.4 230 52.1 231.6C52.5 232.4 53 233.2 53.3 233.7C53.5 234 53.6 234.2 53.7 234.4C53.7 234.5 53.8 234.5 53.8 234.6C54.2 235.5 54.7 235.9 55.3 236.3C55.7 236.4 56.7 236.6 57.2 236.6V236.5L57.4 236.3V236.6H57.5C57.7 236.6 58.3 236.7 58.6 236.7C58.7 236.7 58.9 236.7 59 236.6C59.4 236.4 60.5 236.6 60.9 235.2C60.9 235 60.9 234.7 60.9 234.5C61.6 233.9 62.5 233 62.7 231.8C62.8 231.5 62.5 231 62 230.9C61.6 230.7 60.5 230.4 60 230.2C59.2 229.9 58.9 229.9 58.9 229.7C58.6 229.2 58.5 228.9 58.5 228.7V228.5C58.7 228.1 59.4 227.4 59.9 227.1C60.2 226.8 66.2 222.8 67.1 222.7H67.2C68.4 223 70.5 223.5 71.1 224.2C72.2 225.2 80.5 232.2 82.6 233.2C84.3 234 91.7 238.5 95.7 239C99.3 239.4 105.8 240.8 108.5 241.5C109.9 241.9 112.2 242.3 114.4 242.3C116.6 242.3 119 241.9 120.6 240.1C123 237.2 124.4 237 124.7 234.6C124.8 233.6 125.1 231.4 125.1 229.2C125.1 227.5 124.9 225.7 124.1 224.4C122.5 221.7 121 219.9 121 219.9C120.9 219.8 120.9 219.7 120.8 219.7V219.6C120.9 219 121 218.4 121 217.9C121 215 119.4 213 119.3 212.5C119.2 212.1 118.4 209.8 117.5 206.9C117 205.3 116.4 203.6 115.9 201.9C116.3 201.5 118 200.1 119.7 198.3C120.3 198.9 131.2 210.6 135.8 211.6C135.9 211.6 136 211.7 136.2 211.7C136.2 211.7 141.1 211.6 145.7 210C149.3 208.8 151.7 206.6 154.1 206.7C154.8 206.7 155.6 206.8 156.5 207.3C156.5 207.4 156.6 207.5 156.6 207.6C156.8 208.1 157.2 208.5 157.7 209L158.3 218.1C158.3 218.2 158.3 218.2 158.3 218.2C158.3 218.7 158.3 220.4 159.7 220.9L158.4 230L135.9 235.3C135.7 235.3 135.6 235.4 135.5 235.5C135.5 235.5 135.4 235.5 135.4 235.6C135.3 235.8 135.2 235.9 135.3 236.2V241.8L135.8 242.5L158 250H158.4L199 238.1C199.3 238 199.5 237.7 199.5 237.4V231.6C199.5 231.3 199.3 231 198.9 230.9L175.6 226.1L172 226.9L169.4 210L169.5 209.9C170.5 208.6 171.6 206.5 171.6 203.8C171.6 203.1 171.5 202.2 171.3 201.4C170.5 198.1 170.2 196.3 170.2 195C170.2 194 170.4 193.4 170.6 192.7C170.7 192 178.3 182.8 183.4 173.6C183.4 176.8 183.3 182.1 183.3 184.5C183.3 185.1 183.3 185.5 183.3 185.8C183.3 186.2 183.4 187 183.4 187.9C183.4 189.6 183.2 191.9 182.5 192.7C181.2 194.6 179.8 197.5 179.8 199.3C179.8 199.3 179.8 199.5 179.9 199.8C179.9 200.2 180 201 180 201.7C180 202.6 179.9 203.4 179.8 203.7C179.6 204.4 178.2 208.6 178.2 208.6C178.2 208.7 178.1 209 178.1 209.4C178 210.5 178.5 213.1 181.4 213.4C182.8 213.6 184.5 213.7 186 213.7C188.1 213.7 190 213.5 191.2 213C192.8 212.1 194.2 210.7 194.3 209.1C194.3 208.9 194.3 208.6 194.1 208.3C193.4 206.9 192.1 206.1 191.4 205.1C190.7 204.3 189.9 202.6 189.9 201.6V201.3C189.9 201.2 190.4 199.6 190.5 198.6V198.5V198.4C190.5 198.2 190.4 197.6 190.4 197C190.4 195.8 190.6 194.2 190.9 193.9C191.7 192.8 197.2 184.4 197.2 184.4C197.3 184.3 200 180.2 200.9 168.6V168.5C203.9 168.3 206.1 168.2 207.1 168.2L206.9 168.8L204.2 174.6C204.2 174.6 199.6 183.4 198.8 185.6C198.3 186.9 196.4 190.6 196.4 196C196.4 198.6 196.9 201.7 198.1 204.9L199.6 210.4C202.1 218.5 203.4 219.8 206.7 220.2H206.9C206.6 221.3 206.3 222.3 206.1 222.7C205.8 223.4 205.1 224.6 204.8 226C204.6 226.6 204.5 227.3 204.5 228C204.5 228.2 204.5 228.4 204.6 228.6C204.8 230.5 204.8 232.8 207 233.2C207.3 233.3 207.6 233.3 207.9 233.3C209.1 233.3 210.4 233.1 210.9 233C211.5 233.2 213.1 233.8 214.2 233.8C214.7 233.9 215.3 233.9 215.9 233.9C216.5 233.9 217.2 233.8 217.8 233.5C218.5 233 220.1 232.5 220.9 231.8C221.6 231.2 223.7 229.7 223.8 227.8V227.7C223.6 225.7 220.4 221.5 220.4 221.3C220.4 221.4 220.4 221.3 220.4 221.1C223.4 221.7 232.2 222 241.4 222.5C244.4 222.7 244.7 222.6 247.4 222.7C247.8 222.7 248.3 222.8 248.9 222.8C255.8 222.8 268.5 221.4 268.6 221.4C268.9 221.4 269.2 221.1 269.3 220.8C270.4 220.6 270.1 220.3 269.8 220.2ZM236.3 92.7C236.4 92.7 236.4 92.6 236.4 92.6C236.8 92.6 237.3 92.6 237.8 92.6H239.3C241.8 92.6 245.2 92.9 248.9 95.7L249.6 95.8L254.5 94.3C255.1 94.2 255.7 94.2 256.3 94.2C262.8 94.2 266.1 100.3 266.1 104.1C266.2 108 260.2 113.8 260.2 113.8L254 118.9C252.5 121.7 246.7 124.9 244.3 126.4C230.2 122.5 226.3 116.7 226.3 111C226.2 102.9 234.4 94.6 236.3 92.7ZM232.7 91.8C233.6 91.8 234.4 92 234.9 92.1C232.3 94.7 224.9 102.5 224.8 110.8C224.8 117.1 229.2 123.3 242.5 127.2C240.9 128 239.3 128.4 237.7 128.4C236.8 128.4 236 128.3 235 128.1C225.7 126.2 216.7 114.5 216.6 114.5C216.5 113.2 216.3 112 215.9 111C216 110.9 216.1 110.7 216.1 110.5C216.1 110.4 220.8 95.9 229.1 92.6C230.5 92 231.6 91.8 232.7 91.8ZM224.6 91.4C225.8 91.4 227 91.5 228.3 91.6C220.5 95.2 216.3 105.9 215.2 109.4C213.2 106.5 210 105.8 208 105.9C206.9 105.9 206.2 106 206.1 106H206C205.3 105.9 204.5 105.9 204.2 105.8C203.9 105.8 200.5 104.4 199.3 104.3C199.2 104.3 198.3 104 197.4 103.7C196.2 103.2 194.8 102.6 194.6 102.4C194.1 102.1 193.7 102.1 193.2 102.1H192.6C193.4 101.2 195.3 99.4 197.7 98.3C198.6 98.1 211.3 91.4 224.6 91.4ZM206.2 125.1C205.8 125 205.5 125.3 205.4 125.7C205.4 125.7 204.8 129.4 203.9 132.2C203.5 133.1 203.3 133.7 203.3 133.7C202.9 134.4 202.4 135.2 202 135.8C199.3 139.5 197.1 140.2 195.8 140.2C195.2 140.2 194.7 140.1 194.5 140L195.3 139.5C195.6 139.3 195.7 138.9 195.5 138.5C195.3 138.1 194.8 138 194.5 138.2L193.1 139.1C193 139.2 193 139.2 192.9 139.3C192.2 139 191.4 138.7 191.4 138.7L190.6 138.8L189.2 140.2C189.1 140.2 189.1 140.2 189 140.2C188 140.4 186.7 137.3 186.3 136.2C185.6 134.9 184.4 134.4 183.7 134.3C183.5 134.3 182.1 134 182 134C182 133.9 178.5 131.2 178.2 130.8C176.6 128.9 176.2 126.1 176.2 126.1C176 124.8 175.9 123.5 175.9 122.5C175.9 122.1 175.9 121.9 175.9 121.5C176.2 115.3 179 112.6 179 112.6L181.5 110.4C181.5 110.4 183.4 108.7 183.7 108.4C183.9 108.2 186.3 107.3 187.4 106.7C187.6 106.5 188.6 106.3 189.6 106.4C190.1 106.4 190.5 106.4 190.9 106.4H191.1C191.1 106.4 191.2 106.4 191.3 106.4C192.1 106.4 195.6 107.2 195.7 107.3C196 107.4 199 109.2 199 109.2C199 109.2 199.2 109.7 199.2 110.2C199.2 110.5 199.2 110.8 199.1 111.1C198.7 112.1 196.4 116.3 195.5 117.3C195 117.7 194.8 118.3 194.8 118.8C194.8 120 195.8 120.7 195.9 120.9C195.9 120.9 196 121 196 121.3C196 121.5 195.9 121.7 195.9 121.9C195.9 122.1 195 122.7 194.6 123.7C194.4 124.2 194.4 124.7 194.4 125.3C194.4 126.1 194.5 127.1 194.8 127.9C195.1 128.5 195.7 128.7 196.1 128.7C197.2 128.7 198.8 127.8 199.1 127.7C199.3 127.7 199.3 127.7 199.5 127.6C200.5 127.4 202.2 127.1 202.9 125.8C203.3 125.6 204.2 125.8 205.1 125.2C205.9 124.5 206.9 122.8 207.2 122.5C207.7 121.9 208.2 120.9 208.4 120.8C208.8 120.4 209.1 119.8 209.1 119.2C209.1 118.9 209 118.7 208.9 118.4C209 118.3 209.1 118.2 209.3 118.1C209.8 117.6 209.9 117.1 209.9 116.6C209.9 116.1 209.8 115.7 209.7 115.2C209.4 114.4 208 112.5 208 112.2C208 112.1 208.4 111.2 208.7 110.6L208.3 110.3H208.7C208.4 109.1 207.5 108.9 207 108.6C207.1 108.4 207.2 108 207.3 107.6C207.4 107.3 207.4 107.3 207.4 107.3V107.2H208C210.6 107.3 215 107.9 215.4 114.9C215.4 115.5 215.4 116 215.4 116.4V117.1C215.4 117.1 213.5 123.4 209.2 124.9C208.6 125.1 207.1 126 206.9 126.2C206.8 126.3 206.8 126.4 206.7 126.4C206.7 126.1 206.8 125.8 206.8 125.8C206.9 125.5 206.6 125.2 206.2 125.1ZM199 140.8C197.6 142.9 196.2 145 195.4 145.8C194.7 146.7 193.1 147.4 191.8 148C190.7 148.4 189.7 148.7 189.7 148.7L175.8 150.3L174.9 150.5C174.5 149 173.3 145.1 172.8 142.6C172.8 142.4 172.7 142.2 172.7 141.9C172.6 139.3 175.8 135.1 176.2 134.9C177 134.3 177.5 133.2 177.7 132.5C179 133.6 181.4 135.5 181.4 135.5C181.8 135.6 183.2 136 183.7 136C183.7 136 184.7 136.3 185 137.1C185.5 137.8 186.2 141.7 189 141.9C189.2 141.9 189.4 141.8 189.6 141.8L190 141.6L191.3 140.4C192 140.6 193.3 141.3 193.6 141.4C193.8 141.5 194.6 141.9 195.7 141.9C196.7 141.6 197.8 141.4 199 140.8ZM174.3 117V116.8C174.3 116.5 174.2 116.3 174.2 116.1C174.2 115.9 174.2 115.9 174.2 115.9C175.5 114.9 175.3 113.2 176.1 112.1C176.4 111.5 176.8 111.2 177.5 111C180.8 110.1 180 107.2 181.2 107.3C183.1 106.7 185.1 105.3 185.5 105.2L185.6 105.3C186.7 105.2 189.2 104.2 189.7 104.1C190 104 190.9 103.9 191.7 103.8C192.3 103.7 192.8 103.7 193.2 103.7C193.4 103.7 193.5 103.7 193.6 103.7H193.8C194.3 104 195.6 104.6 196.9 105.1C197.8 105.5 198.6 105.7 199.2 105.8C199.8 105.8 203.2 107.2 204.1 107.4C204.4 107.4 205 107.4 205.5 107.6C205.6 107.6 205.8 107.7 205.9 107.7C205.8 107.9 205.5 108.3 205.5 109C205.4 109.3 205.7 109.8 206 109.9C206.2 110 206.6 110.1 206.9 110.4C207.1 110.5 207.2 110.6 207.3 110.7C207.3 110.7 206.7 111.4 206.6 112.3C206.6 112.3 206.6 112.5 206.7 112.7C206.9 113.5 208.2 115.3 208.4 115.8C208.5 116 208.6 116.4 208.6 116.7C208.6 117 208.5 117.1 208.5 117.1C208.2 117.4 207.7 117.5 207.5 118.5C207.5 118.7 207.7 119 207.8 119.2V119.3C207.8 119.3 207.6 119.8 207.6 119.9C207.1 120.4 206.6 121.3 206.3 121.7C205.9 122.2 204.7 124 204.4 124.2C204.4 124.5 202.6 124 201.8 125.5C201.8 125.5 201.8 125.5 201.6 125.6C201.2 125.9 200 126.3 199.7 126.3H199.6H199.5H199.4C198.5 126.5 197.1 127.3 196.5 127.2V127.3C196.3 126.8 196.2 126 196.2 125.3C196.2 124.8 196.3 124.2 196.3 124.1C196.4 123.7 197.2 123.2 197.6 122.3C197.7 122 197.8 121.6 197.8 121.2C197.8 120.7 197.7 120.3 197.4 119.9C197.1 119.6 196.6 119 196.7 118.7C196.7 118.5 196.7 118.5 196.9 118.2C198.3 116.8 200.4 112.7 200.9 111.4C201.1 111 201.1 110.5 201.1 110.1C201.1 109.2 200.9 108.6 200.5 108.1C199.9 107.5 197.3 106.2 196.6 105.8C195.9 105.5 192.7 104.9 191.5 104.8H191.4H191.3H191C190.7 104.8 190.2 104.8 189.7 104.8C188.7 104.8 187.6 104.8 186.8 105.4C186 105.9 183.8 106.7 183.1 107.1C182.5 107.5 180.7 109.2 180.7 109.2L178.2 111.4C178.1 111.5 175.2 114.3 174.7 120.2C174.6 120.1 174.5 119.8 174.5 119.6V119.5C174.6 119.1 174.6 118.8 174.6 118.8C174.6 118.2 174.4 117.5 174.3 117ZM210.2 79.2C210.2 79.2 212.4 83.1 212.4 84.7C210.8 83.6 209.1 82.7 207.1 81.9C206.7 81.8 206.3 81.9 206.1 82.3C206 82.7 206.1 83.1 206.5 83.3C208.7 84.2 210.8 85.4 212.4 86.6C214.8 88.3 216.1 89.9 216.7 90.7C207.4 92.2 199.7 95.9 197.6 96.9C191.1 92.2 190.4 87.7 190.4 85.6C190.4 85 190.5 84.7 190.5 84.7C190.8 84.3 191.1 84 191.4 83.6C192 82.8 192.1 81.7 192.1 80.8C192.1 79.7 191.9 78.6 191.9 78.3C191.9 78.2 192.2 77.3 192.8 76.8C194 75.6 193.7 73.3 193.9 72.7C193.8 72.7 194.4 72.2 195.1 71.6C195.3 71.2 195.4 70.9 195.4 70.4C195.4 69.2 194.9 67.4 194.8 66.9C194.8 66.8 194.8 66.8 194.8 66.8C194.8 66.4 194.9 66.2 195 65.8C196.2 66.4 204.7 70 210.2 79.2ZM170.9 50.4C171 50.4 171.1 50.2 171.2 50.2V50.1C172.4 48.8 173.8 47.4 174.2 47C174.5 46.7 179.4 45.4 179.6 45.4C179.7 45.4 180 45.3 180.5 45.3C182.3 45.3 185.9 45.6 187.9 47.8L188.3 48C188.4 48 191.7 48.3 192.3 50C193.3 52.2 195.1 55.8 195.1 56.6C195.1 56.6 195.1 56.6 195.1 56.8C195 57.5 194.4 58.4 194.3 59.5C194.3 59.5 194.3 59.6 194.3 59.8V59.9C194.3 60.9 194 63.7 193.8 64.3C193.7 64.5 193.7 64.6 193.6 64.7C193.4 65.3 193.1 66 193.1 66.7C193.1 66.7 193.1 66.9 193.2 67.2C193.3 67.9 193.8 69.6 193.8 70.5C193.8 70.7 193.7 70.7 193.7 70.7C193.4 71.2 192.5 71.5 192.3 72.7C192.4 73.2 192.1 75.7 191.8 75.7C190.9 76.4 190.5 77.4 190.4 78.1V78.2C190.4 78.7 190.6 79.6 190.6 80.8C190.6 81.6 190.5 82.4 190.2 82.7C190 83 189.7 83.3 189.5 83.4C189.2 83.4 188.6 83.4 188.1 83.9L187.3 84.4L187 84.8C187 84.8 186.8 85.6 186.6 86.4C186.5 86.6 186.5 87 186.4 87.2C186 86.7 185.6 86 185.3 85.6L186.7 80.6L187.4 73.9V73.6L192.5 65.5C192.6 65.1 192.6 65 192.6 65C192.5 63.8 192.2 61.4 191.2 60.4C190.7 60 188.8 57.7 188.9 57.5C188.8 56.7 188.2 54.3 188.2 54.3C188.1 54 188 53.8 187.8 53.8C187.6 53.7 187.3 53.8 187.1 53.9C187.1 53.9 183.3 57.1 182.6 57.4C182.6 57.4 182.2 57.5 181.8 57.5C180.7 57.5 179.2 57.2 178.6 57.2H178.5C177.5 57.3 175.8 57.6 175.1 58.9C174.7 59.6 173.2 62.4 172.9 62.8C172.3 63.8 171.9 66.3 171.9 67.9C171.9 68.4 171.7 68.8 171.3 69.3C171 69.8 170.7 70.2 170.4 70.8C170.3 71.1 170.2 71.4 170.2 71.8C170.2 72.7 170.5 73.4 170.7 74.5C170.7 74.7 170.7 75.2 170.7 75.6C170.7 76.9 170.5 78.5 170.4 79C170.4 79 170.3 79 170.2 79.1C170 79.2 169.7 79.2 169.5 79.2C169.5 79.2 169.4 79.2 169.3 79.2C169 79.2 168.7 79.3 168.4 79.4C168.5 79 168.6 78.6 168.6 78.4C168.6 78.3 168.6 78.2 168.6 78.2C168.5 77.1 167.2 74.5 167 73.6C166.7 72.8 165.8 65.8 165.8 64.2V64.1C165.8 62.8 167.4 58.4 167.6 57.4C167.7 56.8 168.9 53.3 169.6 52C169.8 51.7 170.3 51 170.9 50.4ZM184.2 68.8C184.2 68.8 184.6 69 185.1 69.3L185 69.7C184.9 70.1 185.1 70.5 185.5 70.6C185.9 70.7 186.3 70.5 186.4 70.1V69.8C186.9 70 187.5 70.1 188.1 70.2L186.1 73.3C186.1 73.4 186 73.4 186 73.4C182.5 76.1 178.1 76.2 177.3 76.2H177.1C174.8 75.7 172.9 69.7 172.9 69.7C172.9 69.7 172.9 69.6 172.8 69.6C173 69.2 173.2 68.7 173.2 68.1C173.2 67 173.8 64 173.9 63.9C174.3 63.2 175.8 60.7 176.3 59.7C176.3 59.3 177.8 58.8 178.4 58.8C178.9 58.8 180.5 59.1 181.7 59.1C182.2 59.1 182.7 59.1 183.2 58.9C183.9 58.5 185.8 56.9 187 56C187.1 56.7 187.4 57.7 187.4 58C187.7 59.3 189.4 61 190.1 61.8C190.3 61.8 191.1 64.7 191 65.2V65.4L188.8 68.9H188.7C186.7 68.8 184.7 67.6 184.7 67.6C184.4 67.4 183.9 67.5 183.7 67.9C183.7 68.1 183.8 68.6 184.2 68.8ZM154.2 79.2C154.3 80 152.6 79.9 150.2 81.4C149.5 81.9 148.7 82 148 82C147.2 82 146.6 81.8 146 81.6C145.5 81.4 145.2 81.2 145.2 81.2C145.2 81.2 140.8 77 140.7 76.8C140.4 76.4 140 76.2 139.6 76.2C139.1 76.2 138.7 76.4 138.4 76.8C138.3 76.9 138.2 77 138.2 77V76.9C138.1 77 137.7 77 137.1 77H137C136 77 135.5 76.6 135.2 76.2C135.7 75.9 136.8 75.4 136.8 75.4C136.9 75.3 139.5 73.8 142 73.7C142.4 73.7 142.8 73.6 143.2 73.6C143.9 73.5 144.4 73.5 145 73.5C145.9 73.5 146.6 73.7 147.7 74.3L150.2 75.8C150.2 75.8 150.2 75.8 150.3 75.9C150.7 76.6 151.1 77.3 151.1 77.3C151.3 77.7 151.7 77.8 152.1 77.6C152.4 77.3 152.6 76.9 152.3 76.6C152.3 76.6 151.7 75.6 151.2 74.8C150.9 74.3 150.6 73.9 150.6 73.9C150.5 73.7 150.5 73.6 150.5 73.6C150.5 73.4 150.5 73.4 150.7 73.2H150.8C150.9 73.2 151.1 73.2 151.1 73.2C151.2 73.3 151.3 73.3 151.3 73.3C151.4 73.3 152 74.1 153 74.9C154 75.8 153.3 74.3 154.2 77.8C154.3 78.3 154.3 78.6 154.3 78.9V79.2H154.2ZM159.4 76.7C159.1 77.1 158.7 77.4 158.4 77.6C157.8 77.9 156.6 78.2 155.7 78.4C155.7 78.1 155.6 77.8 155.5 77.4C154.9 74.4 154.6 74.2 153.8 73.7C152.9 73.1 152.4 72.4 152.2 72.1C151.9 71.9 151.5 71.7 150.7 71.7C150.3 71.7 149.8 71.8 149.5 72.4C149.2 72.8 149.1 73.2 149.1 73.6V73.7L148.3 73.2C147.1 72.4 145.9 72.2 144.8 72.2C144.4 72.2 144.1 72.2 143.7 72.3C143.8 71.1 144.1 68.4 144.6 68.1C145.4 67.4 147 66.2 148.4 66C148.6 66 148.8 65.9 149 65.9C149.3 65.9 149.6 66 149.9 66C152 66.9 158 69.7 159.3 72.8C159.7 73.8 159.9 74.5 159.9 75.2C159.8 75.8 159.6 76.3 159.4 76.7ZM164.1 93.9C164.2 93.8 166.2 90.7 166.2 85.1C166.2 82.6 165.8 79.7 164.6 76.3V76.2L162.5 67.9C162.4 67.5 162.1 67.3 161.6 67.4C161.2 67.5 161 67.9 161.1 68.3L162.6 74.1C162 74.2 161.6 74.5 161.1 74.8C161.1 74 160.9 73.2 160.4 72.2C158.6 68.2 152.4 65.5 150.3 64.6C149.8 64.4 149.4 64.3 148.9 64.3H148.8C148.8 64.2 148.8 64.2 148.7 64.1C148.7 64.1 148.1 63 148.1 61.4C148.1 60 148.5 58.3 150.1 56.5C153.8 52.1 154.8 51.7 156.1 51.6C157.7 51.4 160.4 51 160.4 51C160.7 50.9 163.1 49.2 166 49.3C167.1 49.3 168.1 49.5 169.3 50.1C168.9 50.6 168.5 51.1 168.3 51.4C167.4 53 166.3 56.3 166.1 57.2C166 57.9 164.3 62.3 164.2 64.1C164.2 65.9 165.2 72.8 165.6 74C165.9 75 167.2 77.9 167.1 78.2V78.3C167 78.7 166.7 80.7 166.7 80.7C166.6 81 166.8 81.3 167 81.4C167.2 81.6 167.5 81.6 167.8 81.5C167.8 81.5 168.1 81.3 168.6 81C168.8 80.9 169 80.8 169.2 80.7C169.4 80.6 169.4 80.7 169.4 80.7H169.5H169.6C170 80.6 171.3 80.8 171.8 79.4C171.9 78.7 172.2 77.1 172.2 75.7C172.2 75.3 172.2 74.8 172.1 74.4C171.9 73.2 171.7 72.4 171.7 71.9C171.7 71.7 171.7 71.6 171.8 71.4C171.8 71.3 171.9 71.2 172 71.1C172.6 72.9 174.2 76.7 177.2 77.6H177.5C178.3 77.6 182.3 77.5 186 75.2L185.5 80.5L184 85.7L184.1 86.3C184.2 86.4 185.2 88.6 186.4 89.2H186.5H186.6C186.6 89.2 186.6 89.2 186.7 89.2C186.8 89.2 186.9 89.2 187.1 89.1C188 88.6 187.8 87.9 188.2 87.1C188.4 86.5 188.5 85.9 188.6 85.7L189.2 85.3C189.2 85.4 189.2 85.6 189.2 85.8C189.2 88.2 190.1 93 196.4 97.8C193.2 99.5 191.2 102.1 191.1 102.2C191 102.3 191 102.5 191 102.7C190.4 102.8 189.8 102.8 189.6 102.9C188.7 103.1 186.2 104.1 185.7 104.1H185.6C184.2 104.3 182.8 105.7 180.9 106.2C178.2 107.4 179.4 109.7 177.4 109.9C176.3 110.2 175.5 110.9 175 111.7C174.2 113.3 173.9 115 173.7 115C173.2 115.2 172.9 115.8 172.9 116.2L164.7 112.3C164.7 112.1 164.6 111.8 164.6 111.6C164.6 111.6 164.6 111.3 164.7 111.2C164.8 110.8 164.9 110.5 164.9 110.3C164.9 109.4 164.5 108.7 164.2 108.2C164.4 108 164.4 107.9 164.4 107.6V107.5C164.2 106.3 163.2 105.7 162.6 105.3V105C162.6 104.6 162.5 104.2 162.4 103.7C162.1 103.2 161.7 101.2 161.7 101.2C161.7 101.1 161.6 100.8 161.6 100.4C161.6 99.7 164.1 94.1 164.1 93.9ZM149.2 89C149.3 89 151.6 89.4 152.1 90.4C152.4 90.7 154.4 91.8 154.3 92.2C155.2 94 156.7 93.4 156.6 94.6C156.6 94.6 156.6 94.8 156.6 94.9L157 95.6C157 95.6 158 96.4 158 96.9L158.5 97.5C158.5 97.5 159.5 97.8 159.9 99.3C159.9 99.5 160.3 101 160.3 101C160.3 101.2 160.7 103.1 161.2 104C161.2 104.1 161.3 104.3 161.3 104.5C161.3 104.7 161.3 104.9 161.3 105.1C161.3 105.3 161.3 105.7 161.8 105.9C161.8 105.9 162.2 106.2 162.6 106.6C162.8 106.7 162.9 106.9 163 107C162.8 107 162.8 107.1 162.8 107.1C162.5 107.4 162.5 107.8 162.8 108.2C162.8 108.2 163.6 109.1 163.6 109.9C163.6 110.1 163.6 110.2 163.5 110.3C163.4 110.6 163.3 110.9 163.3 111.2C163.3 112.1 163.5 112.7 163.5 113.2C163.5 113.6 163.4 113.9 162.8 114.4C162.7 114.5 161.5 115.7 160.5 116.1C159.9 116.3 159.3 116.4 158.9 116.4C158.8 116.4 158.8 116.3 158.8 116.3C158.7 116.1 158.5 115.7 158.3 115.4C157.7 114.4 156.5 114.3 156.4 111.1V110.8C157.4 110.3 158.5 109.8 159.3 109.1C159.8 108.6 159.8 108.1 159.8 107.6C159.8 106.4 159.2 104.7 159.1 104.3V104.1C159 103.2 158.5 99.4 158.5 99C158.5 98.9 158.4 98.9 158.4 98.8C158.5 98.6 158.6 98.4 158.6 98.4L158.4 97.6C158.4 97.6 157.5 97 156.3 96.2C156.3 96.1 156.4 96 156.4 96C156.3 95.4 156 94.3 154.9 93.4C153.9 92.5 152.6 91.7 152.3 91.5C152.1 91.3 150.4 89.9 150.4 89.9C149.2 89.5 148.3 89.3 147.5 89.3C148.1 89.2 148.9 89 149.2 89ZM154.1 142.6C154.2 142.6 157.2 144.5 157.4 145.5C157.6 146 157.7 146.7 157.7 147.4C157.7 148.6 157.4 149.4 156.1 149.9C156.2 149.9 155.4 150 154.5 150.1C154 150.2 153.4 150.2 153 150.2C152.9 149.7 152.5 149.1 151.7 148.8C151.4 148.7 151 148.6 150.6 148.6C150.1 148.6 149.4 148.8 148.8 149.2C148.2 149.6 145.4 151.3 144.9 151.5C144.2 151.8 142.9 151.6 142.2 152.8C142.1 153 141.8 153.8 139.1 155.3L129.6 157.4C127.7 154.2 122.7 147 122.2 146.4V146.3C122 146 121.7 145.7 121.3 145.5V145.4C121.3 145.4 121 144.1 121 142.7C121 141.5 121.3 140.6 121.7 140.5C121.9 140.4 122 140.3 122.2 140.1C122.5 139.8 123.2 139.2 123.6 138.7C124.2 138 125.8 136.3 126.1 136.5C127.4 136.3 128.3 135.4 129 134.6C129.6 133.9 131.2 132 133.2 132C133.4 132 133.6 132 133.8 132.1C136.7 132.5 143.5 133 143.7 133.3C144.8 134 148.2 136.6 149.5 136.9C149.8 136.9 150.3 136.9 150.9 137C151.9 137.2 153 137.6 153.4 138.9C153.7 139.2 154.2 139.7 154.2 140.4C154.2 140.7 154.1 141.1 153.7 141.7C153.6 141.9 153.6 142.1 153.6 142.3C153.9 142.4 154 142.6 154.1 142.6ZM146.2 161.4C146 161.7 145.7 162.1 145.6 162.1C145.4 162.1 145.1 162.2 145 162.3C144.9 162.2 144.8 162.1 144.7 162L143.7 161.2C143.4 160.9 142.9 161 142.7 161.3C142.5 161.6 142.5 162.1 142.8 162.3L143.7 163C143.6 163.1 143.6 163.1 143.5 163.1C142.3 163.5 142.3 164.2 141.5 164.3C141.1 164.4 140.8 164.4 140.3 164.4C138.3 164.4 135.5 163.1 134.9 162.3C133.9 161.1 132.9 159.1 132.9 159.1C132.8 158.7 132.3 158.6 132 158.8C131.7 158.9 131.5 159.4 131.7 159.7C131.7 159.7 131.9 160 132 160.3C131.9 160.3 131.8 160.3 131.7 160.4L130.9 161C130.7 160.2 130.6 159.4 130.3 158.6L139.6 156.5C142.5 155 143.3 153.9 143.5 153.3C143.8 153.1 144.7 152.9 145.3 152.7C146.3 152.3 148.7 150.8 149.6 150.2C150 150 150.2 149.8 150.5 149.8C150.7 149.8 150.9 149.8 151.2 149.9C151.3 149.9 151.5 150.6 151.6 150.8C151.1 153.1 149.5 154 149.5 154L149.1 154.7C149.1 154.7 149 158.4 148.9 159.8C148.9 160 148.8 160.1 148.1 160.1C147.7 160.1 147.3 160 147.2 160C147.1 159.9 146.7 159.8 146.4 159.7C146.2 159.6 146 159.5 145.9 159.4C145.8 159.1 145.6 158.8 145.2 158.8C145.2 158.8 144.5 159 144.5 159.5C145 160.8 145.7 161.2 146.2 161.4ZM144.9 112C144.8 111.3 144.5 110.7 144.3 110.1C146 110.6 149.6 111.3 154.7 111.4C154.7 114.8 156.8 116.1 156.8 116.3C155.3 120.7 150.8 121.7 147.3 121.7C145.7 121.7 144.4 121.5 143.8 121.4C144.8 119.3 145.1 116.8 145.1 116.7C145.2 116.1 145.2 115.5 145.2 115C145.3 114 145.1 113.1 144.9 112ZM154.2 95.3C153.8 95.1 153.3 94.8 153 94.7C152.6 94.5 152.6 94.4 152.6 94.4C152.6 94.3 152.7 94.2 152.8 94C153.1 94.2 153.4 94.4 153.6 94.6C153.9 94.8 154 95.1 154.2 95.3ZM146.7 90.9C147.5 90.9 148.3 91 149.4 91.3C149.3 91.4 150.8 92.6 151.1 92.9C151.2 93 151.4 93.1 151.6 93.2C151.4 93.5 151.1 93.9 151.1 94.5C151.1 95.2 151.6 95.8 152.4 96.1C153.6 96.6 155.8 98.1 156.7 98.7C156.5 99.1 156 99.7 154.8 100.3C154.5 100.5 154.3 100.9 154.6 101.3C154.7 101.5 154.9 101.7 155.2 101.7C155.3 101.7 155.4 101.7 155.5 101.6C156.1 101.3 156.6 100.9 157 100.6C157.1 101.1 157.1 101.6 157.2 102.1C157.1 102.1 157 102.1 156.9 102.2C155.8 102.9 153.6 103.5 153.6 103.5C153.2 103.6 153 104 153 104.4C153.1 104.8 153.5 105 153.9 104.9H153.8C153.9 104.9 155.9 104.5 157.4 103.6C157.5 104.1 157.5 104.4 157.5 104.4V104.5V104.6C157.6 105.3 158.2 106.8 158.2 107.9C158.2 108.3 158.1 108.3 158.1 108.3C157.3 108.9 156 109.6 154.9 110.1C148 110.1 144.1 108.7 143.5 108.5C143 107.1 142.8 105.8 142.8 105V104.9C142.8 104.7 142.8 104.6 142.8 104.6C142.8 103.1 142 101.4 141.3 100.4C140.5 99.4 139.8 98.6 139.8 97.3C139.8 97.1 139.8 96.9 139.8 96.8C139.9 95 141.9 92 142.2 92C143.2 91.6 144.4 90.9 146.7 90.9ZM131.1 109.6C131.4 108.8 131.2 109.2 131.6 106.4C131.9 103.8 134.6 95.8 134.6 95.8C135.2 94.6 137 93.3 137 93.3C138.4 90.8 140 90.5 141 90.5C141.4 90.5 141.7 90.6 141.7 90.6H142.1C142.3 90.5 142.4 90.5 142.6 90.4C142.2 90.6 142 90.7 141.8 90.8C140.3 91.5 138.9 94.3 138.5 96.6C138.5 96.8 138.5 97.1 138.5 97.3C138.5 99.2 139.7 100.4 140.3 101.2C140.9 102 141.6 103.6 141.5 104.6V104.8C141.4 104.8 141.5 105 141.5 105C141.5 106.5 141.9 108.6 142.8 110.6C143 111.1 143.2 111.8 143.4 112.5C143.7 113.5 143.7 114.3 143.7 115C143.7 115.5 143.7 116 143.6 116.5C143.7 116.5 142.3 122.3 141.3 122.5C141.1 122.6 140.3 122.7 139.4 122.7C137.9 122.7 136 122.5 134.4 122.2C133.6 122.1 132.9 121.8 132.4 121.6C132 121.4 131.9 121.3 131.8 121.3C131.2 119.7 130.1 119.3 127.3 117.3C126.9 117 126.9 116.8 126.8 116.4C126.9 114.4 130.4 111 131.1 109.6ZM127.1 118.6C129.7 120.4 130.3 120.7 130.6 121.7C131.7 123.6 136.2 123.9 139.5 124C140.6 124 141.4 123.9 142 123.7C142.4 123.5 142.8 123.1 143.1 122.6C143.1 122.6 145 123 147.4 123H147.5C148.4 123 149.3 122.9 150.2 122.8L150.4 135.4C150.1 135.4 149.8 135.4 149.7 135.4C149.6 135.5 145.4 132.8 144.7 132.1C143.2 131.2 137.1 131.1 134.2 130.6C133.9 130.5 133.6 130.5 133.4 130.5C130.4 130.5 128.7 132.9 128.1 133.6C127.5 134.2 126.6 134.9 126.1 135C124.6 135.2 123.4 137.1 122.7 137.7C122.3 138.1 121.6 138.8 121.3 139.1C121.1 139.3 121 139.3 121 139.3C119.7 139.9 119.6 141.5 119.6 142.8C119.6 143.4 119.7 144 119.7 144.5C119.2 144.2 118.7 144 118.2 143.7C118 142 117.9 140.4 117.9 138.9C117.9 125.5 125.3 119.8 127.1 118.6ZM109.7 142.3C111.6 142.9 117.5 144.6 120.2 146.4L120.3 146.5C120.7 146.8 121 147 121.2 147.3C122 148.3 128.4 157.6 128.9 159C124.6 154.6 117 151.7 116.9 151.6C116.5 151.5 116.1 151.7 116 152C115.8 152.4 116 152.8 116.4 152.9C116.4 152.9 128.1 157.7 129.8 162.9C130 163.8 130.2 164.4 130.2 164.4C130.2 164.5 130.9 167 130.9 167.2C130.7 169.9 129.3 178 123.5 179.5C124.4 177.6 125.1 175.4 125.1 172.9C125.1 169.4 123.7 165.5 120.1 160.9C119.9 160.6 119.4 160.5 119.1 160.8C118.8 161 118.7 161.5 119 161.8C122.5 166.2 123.6 169.8 123.6 172.9C123.6 175.6 122.7 177.9 121.6 179.9C120.1 182.3 116.1 185.5 110.6 186.3H110.2C108.2 186.3 106.8 185.7 105.9 185.1C105 184.5 104.5 184 104.5 184C104.4 183.9 104.3 183.8 104.2 183.8C105.1 181.9 106.1 179.6 106.4 178.1C107.8 177.9 111.4 177.2 111.8 174.4C111.9 173.9 111.9 173.3 111.9 172.5C111.9 169.8 110.1 166.5 99.4 162.4C100.6 161.4 103.3 159.7 107.9 159.7C107.9 159.7 110.9 159.6 113.2 159.6C113.6 159.6 113.9 159.3 113.9 158.9C113.9 158.5 113.6 158.2 113.2 158.2C110.8 158.2 107.9 158.3 107.9 158.3C101 158.3 97.8 161.8 97.6 162.2C97 162.6 93 165.4 90.9 169.9C89.9 172.1 88.8 174.6 88 177.4C84.7 175.3 77.8 168.2 74.7 164.9C73.7 163.8 73.1 163.2 73.1 163.2C72.8 162.9 72.4 162.9 72.1 163.1C71.8 163.4 71.8 163.8 72 164.1C72 164.1 72.4 164.5 73 165.2C72.1 165.6 70.5 166.5 68.9 167.5C68.5 167.3 67.6 166.7 66.5 165.9C65.9 165.4 65.8 165.1 65.8 163.9C65.8 163.3 65.9 162.6 65.9 161.7C65.9 161.2 65.9 160.6 65.8 160V159.8C65.5 156.9 71.9 155.2 73.6 155C75.5 154.8 82.6 153 82.6 153L85.8 151.6C85.8 151.6 85.8 151.7 85.9 151.7C86 151.7 86 151.7 86.1 151.7C86.3 151.6 86.4 151.5 86.5 151.4L89.3 150.2C89.3 150.3 89.5 150.3 89.5 150.4C90.1 151 90.9 152 91.7 152.6C92.4 153.2 93.2 153.2 93.9 153.2C94.3 153.2 94.7 153.1 95 153.1C96.2 152.9 97.5 151.9 97.6 151.9C98.7 151.2 98.3 149.9 98.5 149.3C98.5 148.7 98.9 146.7 99 146.3C99.1 145.9 99.6 144.6 99.7 144.2C100 143.9 101 143.5 101.6 143.3C102 143 102.5 142.7 102.5 142.7H102.6C102.7 142.7 103 142.9 103.2 142.9C103.5 143 103.8 143.2 103.8 143.2C104 143.3 104.7 143.5 105.9 143.5C106.6 143.5 107.6 143.4 108.6 143.1C109 142.8 109.5 142.6 109.7 142.3ZM100 201.4C100.6 201.5 103.5 203.3 103.6 203.5C103.9 203.7 105.6 205.5 105.6 205.5C106 206.3 106.6 206.7 106.7 206.8C107.4 207.1 108.7 208.1 108.8 208.1C108.8 208.2 111.8 211.8 112.1 212.2C112.2 212.3 112.3 212.4 112.3 212.6C112.3 212.6 112.3 212.6 112.2 212.6L108.2 210.1L105 208.9C104.7 208.8 104.3 208.9 104.1 209.2C103.9 209.5 104 209.9 104.3 210.1C105.4 211 106.9 213.8 106.9 213.8C106.9 213.8 107.9 216.1 108.4 217.3C108.5 217.5 108.5 217.7 108.5 217.7C108.5 217.9 108.5 217.9 108.1 218.1C107.9 218.1 107.4 217.6 107.4 217.6L105.8 214.8L102.4 210.3L102.3 210.2C102 210 101.6 210 101.2 210.3C101 210.5 101 210.8 101.1 211L101.7 213L102.5 214.9L103.3 217.8C103.3 217.8 103.9 219.9 104.1 220.4C104.1 220.4 104 220.4 104 220.5C103.7 220.4 103.3 220.3 103.3 220.3L100.3 213.6V213.5V213.4C100.3 213.4 100.3 213.4 100.2 213.4C100.1 213.3 99.9 213.3 99.8 213.3C99.4 213.3 99.1 213.5 99.1 213.9C99.1 213.9 99 214.6 99 215.5C99 215.5 98.8 215.9 98.3 216.1C97.8 216.5 97.2 216.7 97.1 216.7C96.7 216.8 95.9 216.9 95.3 217.7C95.3 217.6 95.3 217.6 95.3 217.6C95.3 217.3 95.4 217 95.4 217L95.5 216.9C95.9 216.7 96.6 216.3 97 215.9C97.2 215.6 97.2 215.3 97.2 215.1C97.2 214.3 96.8 213.3 96.6 212.9C96.1 211.9 94.1 210.9 94 210.7C93.7 210.4 91.4 208.5 91.4 208.5C89.9 207.4 89 203.4 88.6 198.7C88.6 198.7 88.6 198.4 88.6 198.3C88.3 195.3 88.3 192.1 88.2 189.1C88.2 188.7 88.2 188.3 88.2 187.9C88.2 184.5 88.7 181.4 89.4 178.7C90.2 175.6 91.3 173 92.4 170.6C94.1 167 97.5 164.3 98.5 163.6C109.8 167.8 110.8 170.7 110.8 172.6C110.8 173.2 110.7 173.8 110.7 174.4C110.9 175.9 106 176.9 106 176.9C105.6 177 105.4 177.3 105.3 177.6C105.3 178.7 103.7 182.1 102.7 184.1C102.2 185.1 101.9 185.8 101.9 185.8L99.8 190.2C99.8 190.3 96.8 197.1 96.6 198.8C96.5 198.9 96.6 199 96.6 199C96.5 201.2 99.3 201 100 201.4ZM53.7 150.5H54.3C54.3 147.7 52.3 136.9 52.3 129.7C52.3 122.9 56.2 118.6 56.6 118.2C58.3 118.3 60.1 118.3 61.8 118.3C69.7 118.3 76.4 117.4 78.2 117.2C78.9 119.8 79.8 121.7 80.6 123.1L80.5 123.2C80.5 123.2 80.4 124.3 80.4 126.2C80.4 128.5 80.6 132.1 81.5 136.4C82.8 142.7 84.5 148.4 85 150.3L82.2 151.5C82.3 151.5 75.1 153.2 73.4 153.4C71.6 153.7 64.6 154.8 64.4 159.6C64.4 159.6 64.4 159.8 64.4 159.9V161.5C64.4 162.4 64.4 163.1 64.4 163.7C64.4 164.9 64.6 166.1 65.6 166.9C66.4 167.5 67.1 168 67.6 168.3C66.7 168.9 65.9 169.6 65.3 170.3C63.7 172.2 62.3 174.2 61.7 176.2C60.5 175.4 57.4 173.3 56.3 173.1C56 173.1 54.7 172.9 53.3 172.7C53.3 172.7 53.3 172.6 53.3 172.5C52.3 170.1 52.1 167.9 52.1 165.8C52.1 163.2 52.6 161.1 52.9 159.7C53.7 155.9 54.3 152.1 54.4 150.5H53.7ZM88.4 148.9L86.3 149.8C85.7 147.7 84.1 142.2 82.8 136.2C81.9 132 81.7 128.5 81.7 126.2V125.1C82 125.5 82.3 125.9 82.3 126.1C83.1 127.6 87.1 133 87.2 133.1C87.2 133.1 89.8 140.1 89.7 140.2C89.8 140.2 88.3 142.5 87.8 145C87.7 145.4 87.7 145.7 87.7 146.1C87.8 147.2 88 148.2 88.4 148.9ZM118.5 99.8C118.6 100.1 118.9 100.5 119 100.8C118.6 101 117.5 101.4 117 101.3C116.9 101.3 116.8 101.3 116.8 101.3L116 100.9C115.7 100.7 115.2 100.9 115 101.3C114.9 101.6 115 102.1 115.3 102.2L116.1 102.6C116.4 102.7 116.7 102.7 117 102.7C118.2 102.7 119.4 102.1 120 101.8C120.3 101.5 120.5 101.2 120.5 100.9C120.5 100.5 120.3 100.1 120.1 99.8L120.5 99.7C120.5 99.7 123.8 100.2 124.4 100.3C124.6 100.3 126 100.5 127 100.7H126.9C126.6 100.9 126.2 101 126.2 101L122.9 101.5C122.7 101.6 122.5 101.6 122.4 101.9C122.3 102.1 122.3 102.3 122.4 102.6L123.5 104.3C123.6 104.5 123.6 104.7 123.6 104.8C123.7 105.5 122.4 106.4 122.4 106.4L122.1 107.1C122.2 107.5 122.2 107.9 122.2 108.2C122.2 110.2 121 110.6 121 110.6C120 111.3 119.1 111.5 118.2 111.5C116.4 111.5 114.5 110.5 113 109.6C112.4 109.3 111.9 109 111.4 108.7C110.2 108.2 110.1 107.5 110.1 106.3C110.1 105.7 110.1 105.1 110.1 104.4C110.1 104 110.1 104 110.1 104C110.1 102.1 110.9 100.4 111.4 99.8C111.6 99.5 113.6 98.6 114.3 98.3L116.4 98.9L118.5 99.8ZM115.4 97.5L114.3 97.2H114C113.9 97.3 111.2 98.1 110.3 99.3C109.6 100.2 108.7 102 108.7 104.4V104.6C108.6 104.6 108.7 104.7 108.7 104.7C108.7 105.4 108.7 106 108.7 106.7C108.6 107.8 108.9 109.1 110 110C108.2 109.9 106.1 109.8 105.8 109.8C99.5 109.4 97.4 103.5 97.4 103.5C97.2 103.1 97.1 102.5 97.1 101.9C97.1 101 97.3 100 97.4 99.8L101.1 97.9C101 98 107.6 95.7 111.2 94.1L111.3 94C111.4 94.1 111.4 94.2 111.5 94.3C111.6 94.1 114.2 96.2 115.4 97.5ZM112.5 87.6C112.2 88 111.8 88.4 111.3 88.6L107.6 91.1C107.3 91.4 107.2 91.7 107.4 92.1C107.6 92.4 108.1 92.5 108.4 92.3L112.1 89.9C112.3 89.8 112.4 89.7 112.6 89.5C112.6 90.3 112.5 91.2 112.4 91.7C112.1 91.9 111.4 92.3 110.5 92.7C107 94.3 100.4 96.6 100.4 96.6L95.9 98.8L91 101.2C93.7 98.3 94.8 93.3 95.6 91.1C96.3 89.1 97.4 88.9 99.2 88C100.3 87.4 101.6 86.1 103 84.3C103.2 84.5 103.4 84.5 103.6 84.5L113.9 81.8C113.9 81.8 113.9 82.1 113.9 82.5C114.1 83.7 113.8 86 112.5 87.6ZM133.4 70.6C133 71.7 130.9 76.7 130.3 79.2C130.1 79.9 130.1 79.9 130.1 79.9C130.1 79.9 129.9 79.8 129.7 79.7C129.6 79.6 129.4 79.5 129.4 79.5C129.2 79.3 128.8 79.2 128.6 79.4C128.5 79.4 128.5 79.5 128.4 79.5C128.4 79.5 127.6 80.3 127.4 80.5C127.4 80.6 126.7 80.6 126.3 80.6L125.1 79.3C124.9 79 124.4 79 124.1 79.3C123.7 79.5 123.7 80 124 80.3L125 81.4C124.9 81.5 124.8 81.6 124.7 81.7V81.8C123.9 82.1 123.3 82.6 123.1 83.6C123 84.1 123.3 83.9 122.7 84.1C122 84.1 119.4 82.8 119.4 82.8L115.2 80.6L114.6 80.3L114.1 80.2L104.1 82.8C104.8 81.6 105.4 80.2 105.9 78.8C106.3 77.6 106.5 76.2 106.5 74.9C106.5 74.1 106.4 73.4 106.3 72.7C106.5 73 106.7 73.2 106.7 73.3C107 74.2 107.8 74.2 108.3 74.2C109.1 74.2 109.9 74 110.6 74.1C111 74.1 111.2 74.1 111.3 74.2C111.9 74.5 112.4 74.5 113.1 74.5C114.9 74.5 117.3 73.9 117.3 73.9C119.8 73.8 121.5 72 122.2 71.6C123 71 124.5 69.8 124.8 69.7H124.9H125H125.3C126 69.7 126.7 69.4 127.5 68.6C128.2 67.9 128.4 66.9 128.5 66.1L130.4 67.5C132.4 68.8 133.1 68.8 134 69.2C133.8 69.8 133.6 70.2 133.4 70.6ZM100.9 60.6C100.9 60.6 101.1 60.5 101.4 60.5C101.7 60.4 102 60.4 102 60.4C102.4 60.3 102.6 60 102.6 59.6V59.3V59.2C102.6 58.8 104 57.8 105.7 57.3C107.4 56.8 109.2 56.5 109.2 56.5C109.6 56.5 109.8 56.2 109.8 55.8C109.8 54.1 112.5 53.3 115.5 53.4C118 53.4 120.3 53.8 120.3 53.8C121 53.7 121.5 53.7 122 53.7C124.2 53.7 126.3 54.5 128 55.3C129.6 56.1 130.7 56.9 130.7 56.9L131.3 57C131.6 57 131.8 56.9 132 56.9C135 56.8 136.8 60.8 136.8 60.8L137.3 61.2C138.9 61.7 139.4 63.1 139.4 64.7C139.4 66.1 139 67.4 138.9 67.8C138.7 68.3 139.2 68.5 137.3 69H137C136.6 69 136 68.8 135.4 68.6C133.5 67.8 133.5 68.2 131.2 66.7L128.3 64.5C128.1 64.3 127.7 64.3 127.5 64.4C127.3 64.6 127.1 64.8 127.1 65.1C127.1 65.1 127.1 65.3 127.1 65.6C127.2 66.3 127 67.5 126.5 67.9C125.7 68.6 125.6 68.6 125.3 68.6H125C123.6 68.7 122.4 70.2 121.6 70.6C120.5 71.3 119.3 72.6 117.3 72.7C117.2 72.7 114.9 73.2 113.3 73.2C112.7 73.2 112.2 73.1 112.1 73.1C111.6 72.8 111.2 72.8 110.7 72.8C109.9 72.8 109 73 108.4 73H108C107.7 72.2 106.9 71.1 105.6 70.3C105.5 70.1 105.4 69.8 105.3 69.6C104.5 67.9 103.2 66.3 101.4 64.9C100.8 64.4 100.1 64 99.4 63.6V63.5C99.3 63.3 99.3 63.1 99.3 63.1C99.2 62 100.4 60.8 100.9 60.6ZM91.3 63C91.4 63 91.5 62.9 91.6 62.9C93 63 95.6 63.3 98.2 64.6C99 65 99.7 65.4 100.5 66C102.1 67.2 103.2 68.7 103.9 70.2C104.7 71.8 105 73.4 105 75.1C105 76.2 104.9 77.4 104.5 78.5C104 80.2 103.1 81.8 102.3 83.1C101 85 99.4 86.5 98.7 86.8C97.3 87.5 95.3 88 94.4 90.7C93.6 93.1 92.3 98.5 90 100.5C90.1 100.3 89.5 100.8 89.6 101.6C89.6 101.8 89.6 102.1 89.7 102.5C89.8 102.8 89.9 103.3 90.1 103.8C91.1 106.1 94.1 112.1 94.1 116.4C94.2 116.4 94.1 116.5 94.2 116.7C94.1 116.6 94.1 116.8 94.1 116.8C94.1 121.5 95 125.8 96 129.4C97.4 133.1 98.8 137.3 100.8 137.9C101.5 137.9 103.2 138.5 103.5 139C104.4 139.9 106.7 140.8 107.4 141.2C107.6 141.2 108.1 141.5 108.3 141.7C108.2 141.8 108.1 141.8 107.9 141.9C107.1 142.2 106.3 142.3 105.7 142.3C104.7 142.3 104.1 142.1 104.1 142.1C104.2 142.2 103.3 141.5 102.3 141.5H102.2C102.2 141.5 102.1 141.5 102 141.5C101.3 141.7 100.9 142.2 100.7 142.3C100.6 142.4 99.3 142.7 98.5 143.5C98.4 143.6 98.4 143.7 98.3 143.7V143.8V143.9C98.2 144 98.2 144.1 98.2 144.1C98 144.8 97.7 145.7 97.5 146.1C97.3 146.7 97 148.5 97 149.4C97 150.2 96.8 150.9 96.8 150.9C96.7 151 95.2 151.9 94.9 151.9C94.6 151.9 94.2 151.9 93.9 151.9C93.3 151.9 92.8 151.8 92.6 151.6C92 151.1 91.2 150 90.4 149.4C90.3 149.3 90.2 149.1 90 149C89.6 148.4 89.1 147.5 89.1 146.3C89.1 146 89.1 145.7 89.2 145.5C89.6 143.2 90.9 141.7 91.1 140.5V140.4C91 139.3 88.4 132.7 88.4 132.6C88.3 132.4 84.2 126.8 83.6 125.7C83 124.5 80.8 122.2 79.3 116.3C78.8 114.3 78.4 112 78.1 109.1C78.1 108.9 77.7 107.8 77.7 105.4C77.7 105 77.7 104.8 77.7 104.5C77.7 103.8 77.8 103.1 77.9 102.3C78.5 97.8 78.3 91.8 78.4 90.8C78.4 90.6 78.5 90.1 78.5 89.4C78.8 87.3 79.4 83.5 80.4 80.9C81.6 77.6 86.7 69.2 86.7 69.2C86.9 68.8 86.8 68.4 86.5 68.2C86.4 68.1 86.3 68.1 86.2 68.1C85.9 68.1 85.7 68.2 85.6 68.5C85.6 68.5 80.6 76.8 79.2 80.5C78.2 83 77.7 86.4 77.4 88.6H77.3C76.9 88.7 76.5 88.8 76 88.8C73.4 88.8 70.2 85.7 67.3 82C66.3 80.6 65.9 79.5 65.9 78.4C65.9 75.8 68 72.9 71.4 69.3C75 64.7 88.4 63.1 91.3 63ZM50.6 90.6C50.6 89.7 51.1 84.7 51.7 81.1C51.8 80.2 52 79.5 52.1 78.9C52.9 75.8 55.5 74.7 57.7 73.5C60 72.1 62.3 67.6 64.3 66.4C66.3 65.1 72.4 63.9 77.1 62.9C78.6 62.6 80.7 62.4 82.8 62.4H84.2C79.2 63.3 73 65 70.1 68.2C66.7 71.9 64.2 74.9 64.2 78.3C64.2 79.8 64.8 81.3 65.9 82.8C68.9 86.5 72.1 90.1 75.7 90.1C76.1 90.1 76.5 90.1 76.9 90C76.9 90.3 76.9 90.5 76.8 90.7C76.7 91.9 76.9 97.6 76.3 102.1C76.3 102.6 76.2 103.2 76.2 103.7H76.1C76.1 103.7 75.9 103.8 75.7 104L69.2 101.8C68.1 101.5 62 99 60.3 98.8C59.3 98.8 55.9 97.5 54.7 96.6C53.5 96 50.7 91.6 50.6 90.6ZM36.8 102.2C36.4 102 35.7 99.9 35.8 98.5C35.8 97.7 36 97.2 36.1 97.1C37.4 95.9 40.7 92 40.7 92C44.7 84.8 48.6 82.6 50.1 81.9C49.6 85.3 49.2 89.3 49.1 90.4C49.1 90.5 49.1 90.6 49.1 90.6V90.7C49.3 92.5 52.1 96.6 53.9 97.9C55.5 98.9 58.7 100.2 60.3 100.3C61.3 100.3 67.6 102.9 68.8 103.2L74.3 105C72.7 106.2 70.1 108 67.4 109.8C66.3 110.5 65.3 110.8 64.5 110.8C61.7 110.9 59.2 108.3 57.4 107C56.5 106.4 55.3 106.1 54.1 106.1C51.4 106.1 48.1 107 45.2 107.5C45 107.5 44.7 107.5 44.5 107.5C42.6 107.5 40.8 106.3 39.5 105L39.4 104.9C39.3 104.8 39.2 104.7 39.2 104.7C38 103.7 37.3 102.7 36.8 102.2ZM38.3 108.4C38.3 107.5 38.5 106.8 38.8 106.4C40.2 107.7 42.2 108.9 44.5 108.9C44.8 108.9 45.1 108.9 45.4 108.8C48.5 108.3 51.8 107.5 54.1 107.5C55.2 107.5 56 107.7 56.5 108.1C58.2 109.3 60.9 112.1 64.5 112.2C65.6 112.2 66.9 111.8 68.2 111C71.5 108.8 74.6 106.6 76.1 105.6L76.2 105.5C76.2 107.9 76.6 109.3 76.7 109.3C76.9 111.7 77.3 113.9 77.7 115.8C75.7 116.1 69.2 116.9 61.6 116.9C59.8 116.9 57.9 116.9 55.9 116.8C53 116.6 49.9 116.3 47.1 115.7C45.5 115.4 44 115 42.5 114.5C42.5 114.5 42.4 114.5 42.4 114.4C41.7 114.2 41 114 40.3 113.7C38.7 111.3 38.3 109.6 38.3 108.4ZM27.3 165.5L27.2 165.4L22.5 162.1C21.9 161.5 21.7 161 21.7 160.6C21.7 159.9 22.2 159.3 22.2 159.2C22.2 159.2 28.8 152.5 31.9 145.9C33.6 140.7 34.1 128.5 34.2 128.5C34.9 122.5 36.5 119 37.9 117.1C38.8 115.7 39.6 115.2 40 115C40.4 115.1 40.8 115.3 41.1 115.4C39.6 117.1 35.9 122.1 35.7 130L34 150.9C34 151 34 151.1 34 151.1C34 151.3 33.9 152.3 32.8 155.2C32.8 155.2 31.1 159 30.1 161.1C29.4 162.7 29.3 162.8 29.2 163C28.8 163.9 27.6 165.2 27.3 165.5ZM34.4 168.6C33.6 168.5 32.5 168.2 31.4 167.9C30.5 167.7 29.7 167.4 29 167.1C28.7 167 28.4 166.8 28.3 166.8H28.2C28.2 166.7 28.1 166.6 28.1 166.6C28.6 166.1 29.7 164.9 30.2 164C30.4 163.7 30.5 163.5 31.2 161.9C32.3 159.7 33.9 155.9 33.9 155.9C35 153 35.2 151.8 35.2 151.2V151L36.8 130.2C37 121.6 41.7 116.6 42.3 115.9C43.3 116.2 44.3 116.4 45.3 116.6C43.4 118.3 39.4 123.1 39.4 131.7C39.4 131.7 39.4 131.9 39.4 132C39.4 136.4 39.8 141.5 39.8 146.4C39.8 153.1 39.2 159.5 36.9 163.7C36.5 164.3 36.2 164.7 35.9 165.3C36.2 165.5 34.7 167 34.4 168.6ZM43.9 172.2C43.6 172 43 171.5 42.5 170.9C40.8 169.1 38.9 169.3 36.3 169.2C35.9 169.1 36 169.2 35.9 169C35.8 168.4 37.3 166.4 37.3 166.4C37.8 165.8 38.1 165.2 38.4 164.6C41 160 41.5 153.4 41.5 146.7C41.5 141.7 41.2 136.6 41.1 132.3V132C41.1 121.4 47.4 117.3 47.3 117.3C47.3 117.3 47.3 117.3 47.4 117.3C49.8 117.7 52.2 118 54.7 118.2C53.4 120 50.8 124.1 50.7 129.8C50.7 137.2 52.8 148 52.8 150.6C52.8 150.6 52.8 150.8 52.9 151C52.8 152.1 52.2 156 51.4 159.7C51.1 161 50.6 163.2 50.6 166C50.6 168 50.9 170.3 51.8 172.7C51.1 172.6 50.4 172.5 49.8 172.5H49.6C49.4 172.5 49.3 172.5 49.1 172.6C48.5 172.7 48 172.7 47.4 172.7C45.4 172.6 43.9 172.2 43.9 172.2ZM51.1 186.8C51 186.9 50.9 187 50.7 187.2C49.6 188.1 47.4 189.5 46.7 189.8C42.8 189.7 42.2 187.7 42.1 184.8C42.1 182.9 42.6 180.9 42.7 179.5C42.8 177.3 47.4 174.4 49 174C49.2 173.9 49.4 173.9 49.6 173.9H49.7C50.6 173.9 51.8 174.1 53 174.2C54.4 174.4 55.7 174.6 56.1 174.6C56.1 174.5 57.5 175.3 58.8 176.2C59.9 176.9 61 177.6 61.2 177.8V178V178.3C61.2 179.9 62 181.2 62.8 182.2C61.3 182.1 59.9 182.1 59.4 182.1H59.3C57.5 182.2 52.5 185.2 51.1 186.8ZM52.8 187.7C52.8 187.5 52.7 187.4 52.6 187.3C53.9 186.1 58.5 183.5 59.2 183.5C60.3 183.6 62.5 183.5 64.5 183.7C65.9 183.8 67.2 184.2 67.2 184.3C68.1 185.3 68.5 189.2 69.5 190.3C70.1 190.8 74.5 194.4 74.5 194.4C74.8 194.6 75.3 194.6 75.5 194.3C75.8 194 75.7 193.5 75.4 193.3C75.4 193.3 70.9 189.6 70.4 189.2C70.2 189.3 69.4 184.9 68.3 183.4C67.6 182.6 66.4 182.4 65.1 182.2C64.3 181.6 62.6 179.9 62.6 178.2C62.6 178.2 62.6 178.2 62.6 178.1C62.6 177.9 62.7 177.6 62.7 177.3C63.1 175.5 64.5 173.2 66.2 171.2C66.8 170.5 67.9 169.6 69.1 168.8C71 167.6 73.1 166.5 73.9 166.1C77.3 169.7 84.1 176.6 87.5 178.7C86.9 181.4 86.4 184.3 86.4 187.6C86.4 187.9 86.4 188.4 86.4 188.8C86.5 191.7 86.6 194.9 86.8 197.9C84.5 199.9 81.1 200.4 77.2 200.4C74.5 200.4 71.5 200.1 68.6 200C62.3 199.6 57 196.2 55 194.2C54.8 194 54.6 193.8 54.5 193.7C53.3 192.1 52.8 187.7 52.8 187.7ZM121.1 221.5C121.6 222.2 122.6 223.5 123.6 225.3C124.1 226.2 124.4 227.8 124.4 229.4C124.4 231.5 124.1 233.6 123.9 234.7C123.9 236.1 122.9 236.2 120.2 239.3C119.1 240.5 117.2 241 115.2 241C113.1 241 111 240.5 109.7 240.1C106.8 239.3 100.4 238 96.6 237.5C93.2 237.2 85.8 232.8 84 231.9C82.4 231.2 73.7 224 72.8 223.1C71.5 222 69.1 221.5 68.1 221.3C68.1 221.3 68.1 221.3 68 221.3C67.9 221.3 67.9 221.3 67.9 221.3C66 221.4 60.5 225.6 59.8 226C59.2 226.3 58.3 227 57.9 228C57.8 228.2 57.7 228.6 57.7 228.7C57.7 229.4 58 229.8 58.2 230.3C58.7 231.4 59.9 231.4 60.1 231.6C60.5 231.8 61.2 231.9 61.8 232.1C61.7 232.3 61.6 232.4 61.4 232.6C61.2 232.8 61.1 233 60.9 233.1C60.8 233.3 60.8 233.2 60.8 233.2C59.9 233.9 60.1 234.6 60.1 234.9C60 235 59.5 235.1 59.4 235.1C59.5 235.1 59.4 235.1 59.3 235.1C59 235.1 58.5 235 58.1 235C57.9 235 57.8 235 57.8 235C57.5 235 56.4 234.9 56.3 234.9C56.2 234.8 56 234.6 55.8 234.4C55.7 234.3 55.7 234.2 55.7 234.2C55.3 233.2 52.4 228.2 52.3 227.2L52.1 227.1H52.3C52.3 225.9 54.5 220.2 55.6 217.8C56.9 215 56.9 212.1 57 210.7C57 209.9 57.6 209.2 57.9 208.8C63.5 213.6 68.5 219.2 75.3 222.4C82.1 225.6 96.8 231.5 98.5 232C98.8 232.2 99.4 232.4 100.2 232.7C103.1 233.9 108.5 236.3 109.1 236.9C109.4 237.2 109.8 237.2 110.1 236.9C110.4 236.6 110.4 236.2 110.1 235.9C109.4 235.2 106.9 234 104.5 233H105.1C117 233.1 118.3 227 120.5 222.2C120.8 222.1 121 221.7 121.1 221.5ZM116.9 207.5C117.8 210.3 118.6 212.7 118.7 213.1C119.1 214.1 120.3 215.5 120.3 218C120.3 218.4 120.2 218.9 120.2 219.4C120.1 219.6 120.1 219.8 120 220C119.8 220.6 119.6 221.1 119.3 221.8C116.7 226.9 116.6 231.6 105.2 231.8C104.8 231.8 104.3 231.8 103.7 231.8L100.6 231.5H100.5C99.9 231.3 99.3 231 99 230.9C97.5 230.4 82.7 224.5 76 221.3C69.5 218.2 64.5 212.7 58.8 207.7C58.6 207.6 58.6 207.5 58.5 207.4C55.6 204.7 55 200.9 55 198.3C55 197.4 55.1 196.7 55.2 196.1C57.8 198.3 62.8 201.1 68.8 201.5C71.7 201.7 74.7 202 77.5 202C81.1 202 84.6 201.5 87.2 199.7C87.6 203.9 88.3 207.6 90.4 209.3C90.4 209.3 92.7 211.2 92.9 211.4C93.1 211.6 93.7 212 94.2 212.4C94.5 212.6 94.8 212.8 94.9 213C95.1 213.2 95.1 213.2 95.1 213.2C95.2 213.5 95.6 214.5 95.6 214.9C95.4 215 94.4 215.5 94 216.1C93.9 216.3 93.7 216.8 93.7 217.3C93.6 217.8 93.8 218.5 94.5 218.9C94.5 218.9 94.7 219 95.1 219.1C95.5 219.1 95.9 218.9 96.2 218.5C96.4 218.1 96.9 218 97.2 217.9C97.7 217.7 99.3 217.3 100 216.1L102.4 221.1C102.8 221.4 103.4 221.8 104.1 221.8C104.4 221.8 104.6 221.7 104.8 221.7C105.1 221.4 105.7 221 105.7 220.3C105.7 220.1 105.7 219.9 105.6 219.8C105.5 219.4 104.9 217.3 104.9 217.3L104.2 214.8L104.7 215.5L106.4 218.4C106.6 218.5 107.1 219.5 108.2 219.6C108.4 219.6 108.5 219.6 108.6 219.5C109 219.3 110 218.9 110 217.8C110 217.5 109.9 217.2 109.8 216.9C109.3 215.7 108.3 213.3 108.3 213.3C108.3 213.3 107.8 212.3 107.1 211.3L107.6 211.5L111.7 214.1L112.1 214.2C112.2 214.1 112.9 214.2 113.5 213.5C113.7 213.2 113.8 212.9 113.8 212.7C113.8 212.1 113.4 211.6 113.2 211.3C112.9 211 109.8 207.1 109.8 207.1C109.7 207 108.4 206 107.5 205.6C107.5 205.6 107 205.1 107.1 205C106.7 204.1 105.1 202.9 104.7 202.4C104.1 202 101.7 200.4 100.4 200.1C99.4 199.9 97.8 199.4 97.8 199V198.9C98.2 197.2 100.9 190.6 100.9 190.6L103 186.3C103 186.3 103.2 185.8 103.6 185.1C104.2 185.7 106.3 187.7 110.3 187.7C110.6 188.3 113.4 194.2 113.6 196C113.7 197.5 115.5 203 116.9 207.5ZM116.2 200.5C115.6 198.3 115 196.5 114.9 195.8C114.6 193.7 112.4 189.1 111.7 187.6C116.8 186.6 120.7 183.7 122.5 181.1C125.1 180.7 127 179.4 128.4 177.7C128.1 179.8 127.6 182.3 126.2 185.9C126.2 185.9 125.1 188.9 123.8 191.5C123.3 193.9 118 198.9 116.2 200.5ZM121.5 197.4C123.2 195.6 124.8 193.5 125.2 192C125.7 191.1 126 190.3 126.4 189.4C126.5 193.7 126.9 200.1 127.1 203C124.1 200.1 121.6 197.5 121.5 197.4ZM156.8 201.7C156.7 202.4 156.7 203.3 156.7 204.2C156.7 204.7 156.7 205.2 156.8 205.7C156.2 205.5 155.6 205.4 155 205.4C151.8 205.5 149.3 207.8 146.1 208.9C143 209.9 139.7 210.3 138.1 210.4C139.3 207.3 142.5 198.2 143.4 190.7C143.4 190.7 143.9 186.1 144.3 179.7C144.3 179.4 144 179 143.7 179C143.3 179 142.9 179.3 142.9 179.7C142.4 186 142 190.6 142 190.6C141.2 198.3 137.6 208 136.6 210.5C134.9 210 131.8 207.3 128.8 204.6V204.5C128.8 204.5 128 193.1 128 187.9C128 186.9 128.1 186.1 128.1 185.8V185.7C129.9 180.5 130.1 177.4 130.8 174.8V174.6C132.1 171.8 132.5 168.7 132.5 167.3C132.5 166.5 131.8 164.2 131.8 164.2C131.8 164.2 131.6 163.6 131.5 162.8L132.7 161.7C132.7 161.7 132.7 161.7 132.8 161.7C133.2 162.3 133.5 162.9 134 163.4C135.2 164.7 137.9 166 140.5 166C141 166 141.6 165.9 142 165.8C143.4 165.4 143.8 164.5 143.9 164.6C144.9 164.3 145.6 163.5 146 163.6C147 163.3 147.6 162.4 147.9 161.8C148.1 161.8 148.3 161.9 148.5 161.9C149.2 161.9 150.6 161.7 150.7 160.2C150.8 159 150.8 156.4 150.9 155.4C151.5 155 152.7 153.8 153.2 151.8C154.4 151.7 156.5 151.5 156.5 151.5C158.7 150.9 159.3 149.1 159.3 147.6C159.3 146.7 159.1 145.9 158.9 145.3C158.4 143.8 156.5 142.6 155.5 142C155.7 141.5 155.9 141 155.9 140.6C155.8 139.1 154.8 138.4 154.8 138.3C154.4 136.9 153.1 136.2 152 135.9L151.7 122.7C154.1 122.1 156.5 120.6 157.9 117.8L158.2 118C158.2 118 158.4 118 158.8 118C159.3 118 160.1 117.9 161 117.6C162.5 117 163.7 115.7 163.7 115.7C164.4 115.2 164.8 114.5 164.9 113.8L173.1 117.7C173.2 118.2 173.3 118.6 173.3 119V119.3C173.2 119.5 173.2 119.8 173.2 119.8C173.3 121.4 174.4 122.1 174.4 122.1C174.5 122.2 174.6 122.3 174.7 122.3V122.7C174.7 123.9 174.8 125.1 175 126.6C175 126.6 175.3 129.1 176.9 131.3C176.9 131.4 176.9 131.4 176.8 131.4C176.8 131.4 176 133.6 175.6 133.8C174.6 134.6 171.6 138.4 171.5 142C171.5 142.3 171.5 142.6 171.6 143C172.3 146.2 173.9 151.5 173.9 151.5C174 151.9 174.3 152 174.7 152L175.3 151.9C174.9 153 174.1 155 173.8 155.2C173.4 155.6 170.9 157.2 168.9 162.9C168.5 162.7 167.8 162.5 167 162.5C165.9 162.5 164.6 162.9 163.2 164.2C161.4 165.9 160.8 166.4 160.7 166.4C160.7 166.5 160.6 166.5 160.6 166.5C160.6 166.5 160.6 166.5 160.5 166.6C159.8 165 159.6 163.5 159.6 162.2C159.5 155.2 167.5 152 167.5 152C167.8 151.8 168 151.4 167.9 151C167.7 150.6 167.3 150.5 167 150.6C167 150.6 164.6 151.6 162.3 153.7C162.2 152 162 149.1 161.9 146.8C162.1 146.4 163.3 142.7 164.9 138.8C166.5 134.7 168.9 130.3 169.9 130.1C170.3 129.9 170.5 129.5 170.3 129.1C170.2 128.7 169.7 128.5 169.4 128.7C167.1 129.8 164.5 135.6 162.7 140.3C163.3 137 164.3 132.4 165.3 128.2C165.4 127.8 165.1 127.5 164.7 127.4C164.3 127.3 164 127.5 163.9 127.9C162.3 134.9 160.6 142.9 160.5 144.7C160.4 145.1 160.4 145.6 160.4 146.1C160.4 149.3 160.8 154.6 160.9 155.1C159.4 156.8 158.2 159.1 158.2 162.1C158.2 163.7 158.5 165.5 159.4 167.5C159.4 167.6 159.5 167.7 159.5 167.8C158.4 169.3 158.4 169.4 158.1 170C157.9 170.8 156.9 174.7 156.9 175.7C156.9 175.9 156.9 176.4 156.8 176.7C156.7 176.9 156.7 177.1 156.7 177.2C156.6 177.3 155.6 177.9 155.2 178.1C154.8 177.4 153.8 176 152.7 175.6C152.5 175.5 152.1 175.5 151.8 175.5C151.4 175.5 150.5 175.6 150.4 176.6C150.4 176.7 150.4 176.9 150.5 177C150.1 177.1 149.4 177.2 149.3 178.3C149.3 179 149.7 179.4 150.4 179.9L152.5 181.8C152.6 181.8 154.5 183.5 156 183.9C156.3 184 156.8 184 157.2 184C158 184 158.9 183.8 159.6 183.4C159.5 183.7 159.4 184 159.4 184C158.8 184.9 158.2 186.8 158.2 187.9C158.2 188.1 158.2 188.4 158.4 188.7C158.4 188.5 158.6 190.2 160.2 190.4C160.8 190.4 161.3 190 161.7 189.4L162 189C161.4 191 160.8 192.6 160.4 193.4C158.9 196.7 156.9 199.1 156.8 201.7ZM164.3 173.4C163.9 173.3 163.5 173.5 163.4 173.9C163.3 174.3 162.4 175.4 162.3 177.3C162.3 178.2 161.4 178.2 161.2 178.2C160.9 178.1 160.8 177.8 160.7 176.9C160.7 176.2 160.8 175.4 160.9 175C161 174.6 160.7 174.3 160.3 174.2C159.9 174.1 159.6 174.4 159.5 174.8C159.5 175.1 159.3 176 159.3 176.9C159.3 177.6 159.5 178.6 160.1 179.2C160.1 179.5 160 180.3 159.8 181.2C159.7 181.3 159.6 181.4 159.5 181.5C158.9 182.4 157.8 182.7 156.9 182.7C156.5 182.7 156.2 182.7 156 182.6C155.1 182.4 153.1 180.8 153.1 180.8L150.9 178.9C150.7 178.7 150.6 178.6 150.5 178.5C150.8 178.4 151.4 178.3 151.7 177.3V177C151.8 177 152 177 152.1 177.1C152.2 177 154 179.2 154.1 179.3C154.5 179.7 154.5 179.6 154.7 179.7C155.8 179.6 156.9 178.6 157.3 178.3C158 177.5 157.9 176.5 158 175.7C158 175.3 159 171 159.1 170.6C159.4 169.9 159.1 170.4 161.2 167.6C161.3 167.5 161.8 167.1 163.8 165.2C164.9 164.1 165.9 163.9 166.6 163.9C167.2 163.9 167.7 164.1 168 164.3C167.1 167.2 166.2 171 165.6 176.1C165.6 176.1 164.4 180.2 163.2 184.5C163.1 184.5 163.1 184.6 163 184.6L161.6 186.9L160.3 188.7C160 189.1 159.9 189.1 159.9 189.1C159.8 189.2 159.8 189.1 159.6 188.7C159.4 188.5 159.4 188.2 159.3 188.2L159.1 188H159.3C159.2 187.5 160 185.3 160.3 184.8C160.7 184.1 160.8 183.1 161.1 181.8C161.2 180.9 161.4 180 161.4 179.5C162 179.4 163.5 179 163.6 177.2C163.7 175.7 164.3 175.2 164.7 174.2C164.9 173.9 164.6 173.5 164.3 173.4ZM158 248.2L137.6 241.3V237.1L158 243.8V248.2ZM198.9 236.8L159.4 248.4V243.7L198.9 232.5V236.8ZM173.4 235.3C173.8 235.2 174 234.9 173.9 234.5L173 228.4L176.4 227.6L196.6 231.8L158.7 242.6L139.4 236.3L159 231.7L157.8 238C157.7 238.4 157.9 238.7 158.3 238.8C158.7 238.9 159 238.7 159.2 238.4L161.9 231.1L170.4 229.1L172.5 235C172.7 235.2 173.1 235.4 173.4 235.3ZM162.6 229.3L166.7 218.9L169.9 227.6L162.6 229.3ZM171.4 227.3L171.3 227.4L167.4 216.7C167.3 216.4 167 216.3 166.7 216.3C166.4 216.3 166.1 216.5 166 216.7L160.8 229.8H160.7L162 220.5V220.4C162.3 219.8 162.8 218.7 163.1 217.5C163.5 215.8 164.7 211.5 165.9 209.6C166.6 208.5 167.8 208.1 168.5 207.9L168.6 209.7L171.4 227.3ZM183.1 173.1C178 182.5 170.8 191 170.2 192.5C170 193.3 169.7 194.2 169.7 195.2C169.7 196.6 170 198.6 170.8 201.9C171 202.6 171 203.4 171 204C171 205.5 170.6 206.9 170.1 207.9L170 206.9C170 206.5 169.6 206.3 169.2 206.3C169.1 206.3 166.5 206.5 164.8 208.9C163.4 211.1 162.2 215.4 161.8 217.3C161.6 218.2 161.2 219.1 160.9 219.7C160.6 219.4 160.5 218.9 160.5 218.5L160.6 218.3L160 208.8L159.7 208.3C159.2 208 158.9 207.6 158.7 207.2C158.7 207.1 158.6 207.1 158.6 207.1C158.6 207.1 158.6 206.8 158.4 206.7C158.2 206 158.1 205.2 158.1 204.4C158.1 203.6 158.2 202.8 158.2 202C158.1 200.2 160 197.7 161.5 194.5C162.2 193 163.4 189.2 164.5 185.4C165.9 181 167.1 176.6 167.1 176.6C167.8 171.1 168.7 167.2 169.7 164.3C171.8 158.2 173.9 157 174.5 156.4C175.6 155.4 176.6 151.9 176.6 151.9L190 150C190 150 190.8 149.8 191.8 149.4L187.7 158.2L187.6 158.6C187.6 158.8 187.6 159.2 187.6 159.5C187.6 162.5 186.4 166.3 184.6 170.1C184.1 171.2 183.6 172.1 183.1 173.1ZM197.2 183.9C197.2 183.9 191.7 192.3 191 193.4C190.3 194.5 190.3 196.1 190.2 197.3C190.2 197.9 190.2 198.5 190.3 198.7C190.3 199.3 189.8 201 189.8 201C189.7 201.3 189.7 201.6 189.7 201.8C189.7 203.4 190.6 205.1 191.5 206.2C192.5 207.4 193.7 208.2 194 209V209.2C194.1 209.8 193.1 211.2 191.7 211.8C190.9 212.2 189.1 212.4 187.1 212.4C185.6 212.4 184 212.3 182.7 212.1C180.7 211.8 180.6 210.4 180.6 209.5C180.6 209.2 180.6 209.1 180.6 209.1C180.6 209.2 181.9 204.9 182.2 204.3C182.4 203.7 182.4 202.8 182.4 201.9C182.4 201.1 182.4 200.3 182.3 199.7C182.2 199.6 182.2 199.5 182.2 199.5C182.2 198.4 183.5 195.3 184.7 193.8C185.7 192.3 185.8 190 185.8 188.2C185.8 187.2 185.7 186.3 185.7 186C185.6 185.9 185.6 185.4 185.6 184.8C185.6 181.6 185.7 173.2 185.7 171.5C191.5 170.2 196.6 169.5 200.5 169.1C199.7 180.2 197.1 183.8 197.2 183.9ZM202.2 210.4L200.7 204.8C199.5 201.6 199.1 198.8 199.1 196.3C199.1 191.3 200.9 187.8 201.4 186.4C202.1 184.5 206.8 175.6 206.8 175.6L209.6 169.6L210 167.8C210.1 167.4 210.2 167 210.3 166.3C211.1 163.1 212.1 157.6 212.2 155.5C212.2 155.3 212.2 155.2 212.2 155C212.2 152.6 211.2 148.3 210.5 146.3C210.1 145.4 210 144.6 210 143.7C210 143 210.1 142.4 210.2 141.6C210.3 140.3 212.1 133.7 212.5 131.8L221.3 131.4C221.4 131.4 224.3 131.1 226.3 129.8C226.6 129.6 226.7 129.1 226.5 128.8C226.3 128.5 225.8 128.4 225.5 128.6C223.9 129.6 221.1 130 221.1 130L208.1 130.7C207.7 130.7 207.4 131.1 207.4 131.5C207.4 131.9 207.7 132.2 208.1 132.2L210.9 132.1C210.5 134.2 208.9 140.2 208.7 141.6C208.6 142.3 208.5 143 208.5 143.9C208.5 144.8 208.7 145.9 209.1 147C209.8 148.7 210.7 153.1 210.7 155.2V155.4C210.6 157.5 209.6 163.1 208.9 166.2C208.8 166.6 208.7 167 208.6 167.3C207.6 167.3 205 167.3 201.3 167.7H201.1C197.3 168 192.2 168.7 186.4 170C188 166.5 189.1 162.9 189.1 159.9C189.1 159.6 189 159.3 189 159L193.4 149.5V149.4C193.5 149.2 193.5 149.1 193.5 149C194.6 148.5 195.7 147.9 196.4 147C198.2 144.9 203.1 136.9 203.1 136.8L203.2 136.7C203.6 136 204.1 135.3 204.5 134.5C204.5 134.5 204.6 134.3 204.7 134.1H204.8C204.9 133.7 205.1 133.3 205.2 132.9C205.8 131.5 206.8 129.4 207.7 127.5C207.8 127.7 209.3 126.7 209.6 126.7C215 124.6 216.7 117.8 216.8 117.7V117.2C219.5 120.4 226.2 127.5 233.8 129.7C227.1 137.8 222 146.6 218.2 154.9C218 152.2 217.9 149.9 217.9 148.4C217.9 147 218 146.3 218 146.3C218 145.9 217.7 145.6 217.3 145.5C216.9 145.5 216.6 145.8 216.5 146.2C216.5 146.2 216.4 147 216.4 148.3C216.4 150.3 216.5 153.4 217 157.2L217.1 157.3C207.7 179.1 206.5 198 206.5 198.1C206.5 198.2 206.5 198.3 206.6 198.3C206.6 198.5 206.5 198.7 206.5 198.9C206.5 200.9 208.1 202.8 212.5 204.1H212.6C212.7 204.1 212.7 204 212.8 204C212.5 205.6 212.1 207.1 211.7 207.9C210 211.9 208.8 215 208.8 216.9C208.8 217.5 208.7 218.5 208.4 219.5C208.3 219.4 208.2 219.4 208.1 219.4C205.4 218.7 204.9 218.6 202.2 210.4ZM207.8 198.3C207.8 198.3 209.9 195.2 210.2 195C211.1 194.3 212.6 193.1 214.5 191.6C214.2 193.8 213.6 198.8 212.9 202.8C212.8 202.8 212.8 202.7 212.7 202.7C208.5 201.4 207.6 199.9 207.6 198.8C207.7 198.7 207.8 198.5 207.8 198.3ZM223.5 227.9V228C223.5 228.8 221.8 230.6 221.2 230.9C220.7 231.3 219.1 231.9 218.2 232.5C218 232.6 217.6 232.7 217 232.7C216.5 232.7 215.9 232.6 215.4 232.6C214.6 232.6 212.4 231.8 212.4 231.8H212C212 231.8 210.4 232.1 209.1 232.1C208.9 232.1 208.6 232.1 208.4 232C207.6 232.1 207.3 230.8 207.2 228.6C207.2 228.5 207.2 228.4 207.2 228.2C207.2 227.7 207.3 227.1 207.4 226.6C207.8 225.4 208.3 224.3 208.7 223.6C209.3 222.3 210.3 218.4 210.3 216.6C210.3 215.3 211.5 212.1 213.1 208.2C214.9 203.9 216.2 190.6 216.2 190.6C216.2 190.6 216.2 190.4 216.2 190.3C223.1 184.7 233.1 176.5 235.7 172.9C236 172.4 236.4 171.9 236.9 171.5V171.9C236.9 187.7 221.6 209.1 220.1 212.1C219.5 213.2 219.4 214.3 219.4 215.6C219.4 217.5 219.8 219.5 220.1 220.7C220.3 221.6 220.5 222.1 220.5 222.1C220.4 222.5 223.4 226.9 223.5 227.9ZM250 221.5H248.6C245.9 221.4 245.6 221.5 242.7 221.3C241.3 221.2 239.8 221.2 238.3 221.1C238.3 221.1 238.2 221.1 238.2 221C233.6 220 227.4 213.1 227.3 213.1C227.1 212.8 226.6 212.8 226.3 213C226 213.3 226 213.7 226.3 214C226.5 214.2 230.2 218.4 234.3 220.8C232.1 220.7 230.1 220.6 228.3 220.5C226.3 220.3 224.6 220.2 223.4 220.1C222.8 220 222.3 220 222 219.9C221.8 219.9 221.7 219.9 221.6 219.8C221.5 219.8 221.4 219.7 221.3 219.7C221.1 218.5 220.8 217 220.8 215.6C220.8 214.5 220.9 213.4 221.3 212.8C222.2 211 229.1 201.1 233.9 190C236.5 192.9 239 195.7 241.4 198.3C241.4 198.4 241.3 198.6 241.3 198.6C241.6 213.5 248.3 219.3 252.4 221.5C251.4 221.5 250.7 221.5 250 221.5ZM255.7 221.3C255.6 221.3 255.6 221.3 255.5 221.3C255.5 221.3 243.7 219.2 242.7 199.9C246.8 204.3 249.9 207.5 249.9 207.5C250 207.6 250.2 207.7 250.4 207.7C250.6 207.7 250.8 207.6 250.9 207.5C251.2 207.2 251.2 206.8 250.9 206.5C250.9 206.5 242.4 197.6 234.7 188.9C234.6 188.8 234.5 188.8 234.4 188.7C236.7 183.1 238.3 177.3 238.3 172C238.3 171.5 238.3 171 238.3 170.5C240.7 169 243.8 168.7 245.5 168.7C246.5 168.7 247.1 168.8 247.1 168.8C247.5 168.8 247.9 168.5 247.9 168.2C248 167.8 247.7 167.5 247.3 167.4C247.3 167.4 246.6 167.3 245.5 167.3C243.5 167.3 240 167.6 237 169.6C236.1 170.2 235.2 171 234.5 172C232.1 175.3 221.7 184 214.8 189.6C212.5 191.4 210.6 192.9 209.5 193.8C209.3 194 209.1 194.2 208.9 194.5C208.9 194.6 208.6 194.8 208.3 195.1C209.4 185.6 214.5 154.8 235.5 129.7C236.3 129.8 237.1 129.9 237.9 129.9C238.2 129.9 238.6 129.9 238.9 129.9L233.7 150.4C233.6 150.8 233.9 151.2 234.2 151.3C234.6 151.4 234.9 151.2 235 150.8L240.4 129.6C241.9 129.3 243.3 128.7 244.7 127.7C246.6 126.4 253.2 123.2 255.2 119.7L261.2 114.8C261.2 114.8 262.5 113.7 263.8 112C266.5 118.9 268.2 128.5 269.7 141.5C270.2 146.1 270.4 150.5 270.4 154.8C270.4 170.7 267.4 184.6 265.2 193.2C264.9 184.7 263.5 170.3 263.5 160.3C263.5 157.1 263.6 154.4 263.9 152.5C264.5 149.1 264.7 145.7 264.7 142.8C264.7 137 263.9 132.8 263.9 132.8C263.8 132.4 263.5 132.1 263.1 132.2C262.7 132.3 262.4 132.7 262.5 133.1C262.5 133.1 263.3 137.2 263.3 142.8C263.3 145.7 263.1 148.9 262.5 152.3C262.1 154.3 262 157.1 262 160.3C262 171.9 263.8 189.2 263.8 196.5C263.8 197.5 263.8 198.3 263.7 198.8V198.9C263.3 200.8 263.1 202.8 263.1 204.9C263.2 211.2 264.8 217.6 267.6 220.3C264.9 220.6 260.1 221.1 255.7 221.3Z" fill="#6DA4BA"/>
<path d="M144.7 98.7C144.9 98.7 145.1 98.6 145.3 98.4C145.3 98.4 145.9 97.6 146.6 97V97.1L146.9 97.5C147.1 97.8 147.6 97.9 147.9 97.7C148.2 97.5 148.3 97 148.1 96.8L147.8 96.4C147.7 96.4 147.7 96.3 147.7 96.3C147.7 96.2 147.9 96.2 147.9 96.3H148C148.3 96.5 148.7 96.5 149 96.2C149.2 95.9 149.2 95.5 148.9 95.2C148.6 94.9 148.3 94.8 147.9 94.8C145.8 95 144.2 97.7 144.1 97.7C143.9 98 143.9 98.5 144.3 98.7C144.4 98.7 144.6 98.7 144.7 98.7Z" fill="#6DA4BA"/>
<path d="M145.2 156C144.9 156.2 144.9 156.7 145.1 157C145.3 157.1 145.5 157.2 145.7 157.2C145.9 157.2 146 157.1 146.2 157L146.8 156.5C147.3 156.7 147.8 156.8 147.9 156.9C148.3 157 148.6 156.7 148.7 156.4C148.8 156 148.6 155.6 148.2 155.5C148.2 155.5 145.8 154.7 145.6 154.2C145.4 153.9 144.9 153.8 144.6 154C144.2 154.2 144.1 154.6 144.4 155C144.7 155.4 145 155.7 145.4 156H145.2Z" fill="#6DA4BA"/>
<path d="M125.9 71.5C125.7 71.9 125.8 72.3 126.1 72.5L127.3 73.2L127 73.7C126.7 74 126.8 74.5 127.1 74.7C127.5 74.9 127.9 74.8 128.1 74.5L128.4 73.9L129.7 74.8C129.8 74.9 129.9 74.9 130.1 74.9C130.3 74.9 130.6 74.8 130.7 74.6C130.9 74.3 130.8 73.9 130.5 73.6L126.8 71.2C126.6 71.1 126.1 71.2 125.9 71.5Z" fill="#6DA4BA"/>
<path d="M180.2 71.3C179.8 71.3 179.5 71.2 179.4 71.2C179.4 71.1 179.3 71.1 179.3 71.1C179 70.8 178.6 70.8 178.4 71.1C178.4 71.2 178.2 71.1 178.1 71.6C178.2 72.4 178.8 72.8 180.2 72.8C180.6 72.8 180.9 72.5 180.9 72.1C180.9 71.7 180.6 71.4 180.2 71.3Z" fill="#6DA4BA"/>
<path d="M176.7 66.3C176.6 66.7 176.9 67.1 177.3 67.1H177.4C177.8 67.1 178.1 66.9 178.2 66.5V66.2C178.7 66.3 179.3 66.4 179.9 66.4C180.3 66.4 180.6 66.1 180.6 65.7C180.6 65.3 180.3 65 179.9 65C177.9 65 175.9 63.7 175.9 63.7C175.5 63.5 175.1 63.6 174.9 63.9C174.7 64.2 174.8 64.7 175.1 64.9C175.1 64.9 175.7 65.3 176.7 65.7V66.3Z" fill="#6DA4BA"/>
<path d="M179.6 73.7C178.5 73.6 177.8 73 177.8 73C177.5 72.7 177.1 72.8 176.8 73.1C176.5 73.4 176.6 73.8 176.9 74.1C177 74.1 178 75.1 179.6 75.1C180 75.1 180.3 74.8 180.3 74.4C180.4 74.1 180 73.7 179.6 73.7Z" fill="#6DA4BA"/>
<path d="M241.7 107.2C241.9 107.2 242.1 107.1 242.2 106.9L247.9 101.2C248.2 101 248.2 100.5 247.9 100.2C247.7 99.9 247.2 99.9 246.9 100.2L241.2 106C240.9 106.3 240.9 106.7 241.2 107C241.4 107.1 241.5 107.2 241.7 107.2Z" fill="#6DA4BA"/>
</svg>
